G04 Layer_Physical_Order=7*
G04 Layer_Color=8421376*
%FSLAX43Y43*%
%MOMM*%
G71*
G01*
G75*
%ADD102C,1.016*%
%ADD103C,0.500*%
%ADD104C,2.100*%
%ADD105C,1.600*%
%ADD106C,1.900*%
G04:AMPARAMS|DCode=107|XSize=2.524mm|YSize=2.524mm|CornerRadius=0mm|HoleSize=0mm|Usage=FLASHONLY|Rotation=0.000|XOffset=0mm|YOffset=0mm|HoleType=Round|Shape=Relief|Width=0.254mm|Gap=0.254mm|Entries=4|*
%AMTHD107*
7,0,0,2.524,2.016,0.254,45*
%
%ADD107THD107*%
%ADD108O,1.425X2.100*%
%ADD109O,1.250X1.450*%
%ADD110C,3.600*%
%AMTHOVALD111*
21,1,1.700,2.824,0,0,270.0*
1,1,2.824,0.000,0.850*
1,1,2.824,0.000,-0.850*
21,0,1.700,2.316,0,0,270.0*
1,0,2.316,0.000,0.850*
1,0,2.316,0.000,-0.850*
4,0,4,-0.090,0.760,-1.088,1.759,-0.909,1.938,0.090,0.940,-0.090,0.760,0.0*
4,0,4,-0.090,-0.940,0.909,-1.938,1.088,-1.759,0.090,-0.760,-0.090,-0.940,0.0*
4,0,4,-0.090,0.940,0.909,1.938,1.088,1.759,0.090,0.760,-0.090,0.940,0.0*
4,0,4,-0.090,-0.760,-1.088,-1.759,-0.909,-1.938,0.090,-0.940,-0.090,-0.760,0.0*
%
%ADD111THOVALD111*%

%ADD112O,4.100X1.800*%
%AMTHOVALD113*
21,1,1.800,2.724,0,0,0.0*
1,1,2.724,-0.900,0.000*
1,1,2.724,0.900,0.000*
21,0,1.800,2.216,0,0,0.0*
1,0,2.216,-0.900,0.000*
1,0,2.216,0.900,0.000*
4,0,4,-0.810,-0.090,-1.773,-1.053,-1.953,-0.873,-0.990,0.090,-0.810,-0.090,0.0*
4,0,4,0.990,-0.090,1.953,0.873,1.773,1.053,0.810,0.090,0.990,-0.090,0.0*
4,0,4,-0.990,-0.090,-1.953,0.873,-1.773,1.053,-0.810,0.090,-0.990,-0.090,0.0*
4,0,4,0.810,-0.090,1.773,-1.053,1.953,-0.873,0.990,0.090,0.810,-0.090,0.0*
%
%ADD113THOVALD113*%

%ADD114C,1.790*%
%ADD115C,1.620*%
%ADD116C,0.850*%
%ADD117C,0.800*%
%ADD118C,0.930*%
D102*
X-10600Y-350D02*
G03*
X-9825Y-1I0J1036D01*
G01*
X-21375D02*
G03*
X-20600Y-350I776J686D01*
G01*
X-43434Y-350D02*
G03*
X-42659Y-1I0J1036D01*
G01*
X-54209D02*
G03*
X-53434Y-350I776J686D01*
G01*
X-90000Y-135000D02*
Y0D01*
X-54209D01*
Y-1D02*
Y0D01*
X-53434Y-350D02*
X-43434D01*
Y-350D01*
X-42659Y-1D02*
Y0D01*
X-21375D01*
Y-1D02*
Y0D01*
X-20600Y-350D02*
X-10600D01*
Y-350D01*
X-9825Y-1D02*
Y0D01*
X0D01*
Y-135000D02*
Y0D01*
X-90000Y-135000D02*
X0D01*
D103*
X-67325Y-21825D02*
Y-17375D01*
X-71575Y-21825D02*
X-67325D01*
X-71575D02*
Y-17375D01*
X-67325D01*
D104*
X-33028Y-129200D02*
D03*
X-57628D02*
D03*
D105*
X-60350Y-132945D02*
D03*
Y-130405D02*
D03*
X-27442Y-54295D02*
D03*
Y-51755D02*
D03*
X-4430Y-74450D02*
D03*
Y-66830D02*
D03*
X-6970D02*
D03*
X-4430Y-69370D02*
D03*
X-6970D02*
D03*
X-4430Y-71910D02*
D03*
X-6970D02*
D03*
Y-74450D02*
D03*
Y-84610D02*
D03*
X-4430D02*
D03*
X-6970Y-82070D02*
D03*
X-4430D02*
D03*
X-6970Y-79530D02*
D03*
X-4430D02*
D03*
Y-76990D02*
D03*
X-6970D02*
D03*
X-4430Y-87150D02*
D03*
X-6970Y-64290D02*
D03*
X-19670Y-58194D02*
D03*
Y-55654D02*
D03*
Y-50574D02*
D03*
Y-53114D02*
D03*
Y-63274D02*
D03*
Y-60734D02*
D03*
Y-65814D02*
D03*
Y-68354D02*
D03*
Y-81054D02*
D03*
Y-78514D02*
D03*
Y-73434D02*
D03*
Y-75974D02*
D03*
Y-86134D02*
D03*
Y-83594D02*
D03*
Y-88674D02*
D03*
Y-91214D02*
D03*
X-67930Y-42954D02*
D03*
Y-50574D02*
D03*
Y-37874D02*
D03*
Y-40414D02*
D03*
Y-35334D02*
D03*
Y-32794D02*
D03*
Y-65814D02*
D03*
Y-68354D02*
D03*
Y-73434D02*
D03*
Y-70894D02*
D03*
Y-60734D02*
D03*
Y-63274D02*
D03*
Y-58194D02*
D03*
Y-55654D02*
D03*
X-61550Y-42960D02*
D03*
Y-45500D02*
D03*
X-39990Y-71021D02*
D03*
X-42530D02*
D03*
X-39990Y-68481D02*
D03*
X-42530D02*
D03*
X-45070D02*
D03*
X-47610Y-98834D02*
D03*
Y-101374D02*
D03*
X-45070Y-98834D02*
D03*
Y-101374D02*
D03*
X-50150Y-98834D02*
D03*
Y-101374D02*
D03*
X-52690D02*
D03*
Y-98834D02*
D03*
X-55230Y-101374D02*
D03*
Y-98834D02*
D03*
X-57770Y-101374D02*
D03*
Y-98834D02*
D03*
X-60310Y-101374D02*
D03*
Y-98834D02*
D03*
X-42530D02*
D03*
Y-101374D02*
D03*
X-39990Y-98834D02*
D03*
Y-101374D02*
D03*
X-37450Y-98834D02*
D03*
Y-101374D02*
D03*
X-34910Y-98834D02*
D03*
Y-101374D02*
D03*
X-32370D02*
D03*
Y-98834D02*
D03*
X-19670D02*
D03*
Y-101374D02*
D03*
X-22210D02*
D03*
Y-98834D02*
D03*
X-24750Y-101374D02*
D03*
Y-98834D02*
D03*
X-27290Y-101374D02*
D03*
Y-98834D02*
D03*
X-29830Y-101374D02*
D03*
Y-98834D02*
D03*
X-41270Y-10950D02*
D03*
X-38730D02*
D03*
X-4430Y-38890D02*
D03*
Y-31270D02*
D03*
X-6970D02*
D03*
X-4430Y-33810D02*
D03*
X-6970D02*
D03*
X-4430Y-36350D02*
D03*
X-6970D02*
D03*
Y-38890D02*
D03*
Y-49050D02*
D03*
X-4430D02*
D03*
X-6970Y-46510D02*
D03*
X-4430D02*
D03*
X-6970Y-43970D02*
D03*
X-4430D02*
D03*
Y-41430D02*
D03*
X-6970D02*
D03*
X-4430Y-51590D02*
D03*
X-6970Y-28730D02*
D03*
X-4430Y-16030D02*
D03*
X-6970D02*
D03*
Y-13490D02*
D03*
X-62510Y-20987D02*
D03*
Y-18447D02*
D03*
X-84440Y-45494D02*
D03*
Y-48034D02*
D03*
Y-50574D02*
D03*
Y-53114D02*
D03*
X-86980Y-55654D02*
D03*
X-84440D02*
D03*
Y-40414D02*
D03*
Y-37874D02*
D03*
Y-35334D02*
D03*
Y-32794D02*
D03*
Y-42954D02*
D03*
X-27442Y-41430D02*
D03*
Y-38890D02*
D03*
Y-36350D02*
D03*
X-19670Y-23650D02*
D03*
Y-26190D02*
D03*
Y-46510D02*
D03*
Y-43970D02*
D03*
Y-38890D02*
D03*
Y-41430D02*
D03*
Y-28730D02*
D03*
Y-33810D02*
D03*
Y-36350D02*
D03*
X-67930Y-88674D02*
D03*
Y-91214D02*
D03*
Y-96294D02*
D03*
Y-93754D02*
D03*
Y-83594D02*
D03*
Y-86134D02*
D03*
Y-81054D02*
D03*
Y-78514D02*
D03*
D106*
X-67925Y-123475D02*
D03*
Y-129775D02*
D03*
X-80425Y-123525D02*
D03*
Y-129825D02*
D03*
D107*
X-4430Y-64290D02*
D03*
X-6970Y-87150D02*
D03*
X-67930Y-45494D02*
D03*
Y-48034D02*
D03*
X-45070Y-71021D02*
D03*
X-62850Y-98834D02*
D03*
Y-101374D02*
D03*
X-4430Y-28730D02*
D03*
X-6970Y-51590D02*
D03*
X-4430Y-13490D02*
D03*
X-86980Y-45494D02*
D03*
Y-48034D02*
D03*
Y-50574D02*
D03*
Y-53114D02*
D03*
Y-42954D02*
D03*
Y-40414D02*
D03*
Y-37874D02*
D03*
Y-35334D02*
D03*
Y-32794D02*
D03*
X-19670Y-31270D02*
D03*
D108*
X-44347Y-1675D02*
D03*
X-52521D02*
D03*
X-11512D02*
D03*
X-19688D02*
D03*
D109*
X-50659Y-4800D02*
D03*
X-46209D02*
D03*
X-17825D02*
D03*
X-13375D02*
D03*
D110*
X-22425Y-129095D02*
D03*
X-9725D02*
D03*
D111*
X-79350Y-10750D02*
D03*
D112*
X-74450Y-13700D02*
D03*
D113*
Y-7700D02*
D03*
D114*
X-76185Y-54384D02*
D03*
Y-21364D02*
D03*
D115*
X-80670Y-94010D02*
D03*
Y-73890D02*
D03*
D116*
X-55425Y-84450D02*
D03*
X-56005Y-82777D02*
D03*
X-59769Y-79911D02*
D03*
Y-79119D02*
D03*
Y-78327D02*
D03*
Y-77534D02*
D03*
Y-76742D02*
D03*
Y-75950D02*
D03*
X-54355Y-83560D02*
D03*
X-53489D02*
D03*
X-52622D02*
D03*
X-48075Y-79911D02*
D03*
X-48075Y-79106D02*
D03*
X-48075Y-78301D02*
D03*
Y-77495D02*
D03*
Y-76690D02*
D03*
Y-75885D02*
D03*
X-44750Y-53525D02*
D03*
X-49950Y-43600D02*
D03*
X-50050Y-45700D02*
D03*
X-63545Y-64686D02*
D03*
X-65973Y-70560D02*
D03*
X-67175Y-54125D02*
D03*
X-74775Y-69619D02*
D03*
X-65025Y-107450D02*
D03*
X-44852Y-59303D02*
D03*
X-63750Y-61200D02*
D03*
X-73625Y-60125D02*
D03*
X-77680Y-41670D02*
D03*
X-65025Y-105150D02*
D03*
X-13775Y-60700D02*
D03*
X-45750Y-59275D02*
D03*
X-13425Y-73175D02*
D03*
X-64420Y-54625D02*
D03*
Y-60425D02*
D03*
X-59769Y-81075D02*
D03*
X-65725Y-84489D02*
D03*
X-63575Y-83594D02*
D03*
Y-73339D02*
D03*
X-56800Y-56250D02*
D03*
X-57078Y-57753D02*
D03*
X-60806Y-53943D02*
D03*
X-60200Y-52750D02*
D03*
X-50855Y-44522D02*
D03*
X-54250Y-67147D02*
D03*
X-54725Y-66625D02*
D03*
X-48975Y-67147D02*
D03*
X-52827Y-68008D02*
D03*
X-45025Y-46702D02*
D03*
X-44202Y-54234D02*
D03*
X-48263Y-57644D02*
D03*
X-46311Y-56250D02*
D03*
X-45275Y-57275D02*
D03*
X-46180Y-63850D02*
D03*
X-56950Y-69422D02*
D03*
X-56368Y-68697D02*
D03*
X-53925Y-70102D02*
D03*
X-53169D02*
D03*
X-57060Y-54416D02*
D03*
X-49934Y-68178D02*
D03*
X-52151Y-65581D02*
D03*
X-60125Y-42775D02*
D03*
X-63575Y-71475D02*
D03*
X-50855Y-46702D02*
D03*
X-61975Y-53175D02*
D03*
X-61950Y-57550D02*
D03*
X-53796Y-54565D02*
D03*
X-48100Y-68178D02*
D03*
X-46650Y-66625D02*
D03*
X-57436Y-65581D02*
D03*
X-44567Y-73842D02*
D03*
X-23280Y-42875D02*
D03*
X-32975Y-42500D02*
D03*
X-53775Y-45750D02*
D03*
X-54300Y-46250D02*
D03*
X-87950Y-16875D02*
D03*
X-77731Y-28981D02*
D03*
X-75569Y-46753D02*
D03*
X-76850D02*
D03*
X-69303Y-56603D02*
D03*
X-40700Y-33800D02*
D03*
X-54275Y-53750D02*
D03*
X-42900Y-62025D02*
D03*
X-41127Y-63128D02*
D03*
X-83708Y-82550D02*
D03*
X-28275Y-22675D02*
D03*
X-13175Y-106142D02*
D03*
X-8200Y-100450D02*
D03*
X-13875Y-106142D02*
D03*
X-8200Y-99750D02*
D03*
X-6400Y-99050D02*
D03*
Y-99750D02*
D03*
X-16935Y-106142D02*
D03*
X-16235D02*
D03*
X-58432Y-2005D02*
D03*
X-65041Y-4413D02*
D03*
X-68875Y-11275D02*
D03*
X-72402Y-4687D02*
D03*
X-62600Y-9900D02*
D03*
X-61325Y-126100D02*
D03*
X-65475Y-1650D02*
D03*
X-54456Y-38250D02*
D03*
X-17307Y-54362D02*
D03*
X-26009Y-55957D02*
D03*
X-25325Y-69675D02*
D03*
X-25800Y-66200D02*
D03*
X-44300Y-72800D02*
D03*
X-28015Y-69663D02*
D03*
X-35350Y-69775D02*
D03*
X-37450Y-69650D02*
D03*
X-58700Y-47950D02*
D03*
X-58771Y-47200D02*
D03*
X-57005Y-48250D02*
D03*
X-48618Y-34197D02*
D03*
X-51300Y-31508D02*
D03*
X-43765Y-33165D02*
D03*
X-53475Y-36125D02*
D03*
X-38748Y-102900D02*
D03*
X-36248Y-103000D02*
D03*
X-56400Y-105800D02*
D03*
X-1800Y-7250D02*
D03*
X-14925Y-80800D02*
D03*
X-23400Y-104575D02*
D03*
X-50825Y-68075D02*
D03*
X-56303Y-62403D02*
D03*
X-57128Y-43723D02*
D03*
X-33075Y-43250D02*
D03*
X-26825Y-87623D02*
D03*
X-2025Y-95300D02*
D03*
X-4475Y-95675D02*
D03*
X-9450Y-105025D02*
D03*
X-35675Y-13825D02*
D03*
X-33050Y-13775D02*
D03*
X-69225Y-112300D02*
D03*
X-69175Y-110925D02*
D03*
X-70300Y-113050D02*
D03*
X-1925Y-100425D02*
D03*
X-9425Y-99250D02*
D03*
X-34000Y-5600D02*
D03*
X-16585Y-114665D02*
D03*
X-12900Y-113025D02*
D03*
X-15850Y-129225D02*
D03*
X-20850Y-105825D02*
D03*
X-12000Y-94825D02*
D03*
X-5325Y-93700D02*
D03*
X-57875Y-51225D02*
D03*
X-3425Y-95625D02*
D03*
X-41752Y-62178D02*
D03*
X-70653Y-51753D02*
D03*
X-35750Y-89375D02*
D03*
X-41400Y-88525D02*
D03*
X-41375Y-89825D02*
D03*
X-40800Y-87350D02*
D03*
X-70653Y-59628D02*
D03*
X-57377Y-102900D02*
D03*
X-40003Y-105750D02*
D03*
X-46248Y-102900D02*
D03*
X-41248D02*
D03*
X-53678D02*
D03*
X-55377D02*
D03*
X-73705Y-26430D02*
D03*
X-44400Y-92700D02*
D03*
X-12075Y-87200D02*
D03*
X-79225Y-89700D02*
D03*
X-26825Y-91048D02*
D03*
X-13425Y-87925D02*
D03*
X-13800Y-86575D02*
D03*
X-11305Y-105850D02*
D03*
X-58957Y-11680D02*
D03*
X-82975Y-77200D02*
D03*
X-83925Y-116050D02*
D03*
X-80875Y-117350D02*
D03*
X-80900Y-116050D02*
D03*
X-69625Y-106075D02*
D03*
X-77664Y-110950D02*
D03*
X-75925Y-101850D02*
D03*
X-77025Y-101875D02*
D03*
X-82025Y-104374D02*
D03*
X-75400Y-111025D02*
D03*
X-77900Y-116150D02*
D03*
X-86900D02*
D03*
X-83925Y-117350D02*
D03*
X-70050Y-116125D02*
D03*
Y-117500D02*
D03*
X-67050D02*
D03*
X-67075Y-116200D02*
D03*
X-87300Y-29700D02*
D03*
X-56032Y-4530D02*
D03*
X-29300Y-57225D02*
D03*
X-29925Y-60525D02*
D03*
X-27475Y-60200D02*
D03*
X-13150Y-91625D02*
D03*
X-2825Y-97025D02*
D03*
X-2000Y-96250D02*
D03*
X-73975Y-114875D02*
D03*
X-47332Y-11693D02*
D03*
Y-14711D02*
D03*
X-58307Y-12805D02*
D03*
X-10850Y-92400D02*
D03*
X-20050Y-21925D02*
D03*
X-20875Y-21000D02*
D03*
X-46425Y-57300D02*
D03*
X-49360Y-58365D02*
D03*
X-54275Y-55250D02*
D03*
X-48950Y-61950D02*
D03*
X-37227Y-45227D02*
D03*
X-35827Y-48327D02*
D03*
X-37227Y-46252D02*
D03*
X-39702Y-27576D02*
D03*
X-63028Y-50727D02*
D03*
X-37750Y-41500D02*
D03*
X-32875Y-69775D02*
D03*
X-33375Y-37300D02*
D03*
X-29075Y-80050D02*
D03*
X-26825Y-86473D02*
D03*
Y-83023D02*
D03*
Y-88773D02*
D03*
X-32925Y-47250D02*
D03*
X-42250Y-38075D02*
D03*
X-56850Y-50750D02*
D03*
X-37752Y-61978D02*
D03*
X-36752Y-62403D02*
D03*
X-38750Y-40875D02*
D03*
X-24325Y-47475D02*
D03*
X-41250Y-38075D02*
D03*
X-39750Y-37075D02*
D03*
X-36925Y-70375D02*
D03*
X-38550Y-81700D02*
D03*
X-38250Y-38075D02*
D03*
X-12425Y-96625D02*
D03*
X-11900Y-96100D02*
D03*
X-6500Y-92200D02*
D03*
X-7925Y-91825D02*
D03*
X-72950Y-58425D02*
D03*
X-76375Y-31700D02*
D03*
X-37477Y-51753D02*
D03*
X-51182Y-12105D02*
D03*
X-26009Y-30166D02*
D03*
X-24734Y-30725D02*
D03*
X-29200Y-13200D02*
D03*
X-57350Y-55750D02*
D03*
X-54300Y-44250D02*
D03*
X-53775Y-43750D02*
D03*
X-22400Y-8950D02*
D03*
X-60175Y-24550D02*
D03*
X-57025Y-41750D02*
D03*
X-60125Y-51450D02*
D03*
X-30100Y-69525D02*
D03*
X-31025Y-61300D02*
D03*
X-29300Y-61875D02*
D03*
X-16275Y-76200D02*
D03*
X-22450Y-41275D02*
D03*
X-76250Y-23825D02*
D03*
X-32050Y-36125D02*
D03*
X-34552Y-35552D02*
D03*
X-79475Y-41525D02*
D03*
X-76375Y-44450D02*
D03*
X-23800Y-46875D02*
D03*
X-33425Y-96925D02*
D03*
X-71275Y-104680D02*
D03*
X-46250Y-34950D02*
D03*
X-21725Y-40550D02*
D03*
X-37625Y-63100D02*
D03*
X-66425Y-53950D02*
D03*
X-40750Y-37050D02*
D03*
X-16875Y-45775D02*
D03*
X-15125Y-45125D02*
D03*
X-21750Y-43100D02*
D03*
X-31875Y-29950D02*
D03*
X-41725Y-66800D02*
D03*
X-42875Y-66800D02*
D03*
X-36600Y-10075D02*
D03*
X-74675Y-5200D02*
D03*
X-76075Y-2725D02*
D03*
X-32050Y-13000D02*
D03*
X-37325Y-90250D02*
D03*
X-82050Y-29725D02*
D03*
X-69275Y-28100D02*
D03*
X-29650Y-22675D02*
D03*
X-31875Y-26375D02*
D03*
X-33475Y-26375D02*
D03*
X-30275Y-26368D02*
D03*
X-8425Y-92525D02*
D03*
X-7425D02*
D03*
X-76600Y-110863D02*
D03*
X-70100Y-104175D02*
D03*
X-29450Y-8650D02*
D03*
X-54982Y-2030D02*
D03*
X-56132Y-1030D02*
D03*
X-57507D02*
D03*
X-29875Y-5075D02*
D03*
X-26425Y-22200D02*
D03*
X-29925Y-16225D02*
D03*
X-20050Y-19450D02*
D03*
X-35125Y-26375D02*
D03*
X-28950Y-26368D02*
D03*
X-27625D02*
D03*
X-26825Y-89923D02*
D03*
X-26819Y-84173D02*
D03*
Y-85323D02*
D03*
X-26825Y-81873D02*
D03*
X-85175Y-87600D02*
D03*
X-52832Y-5230D02*
D03*
X-84300Y-16950D02*
D03*
X-58360Y-14354D02*
D03*
X-58232Y-10405D02*
D03*
X-59207Y-9430D02*
D03*
X-52107Y-15205D02*
D03*
X-52857D02*
D03*
X-51182Y-14255D02*
D03*
X-51982Y-13555D02*
D03*
Y-12780D02*
D03*
Y-11205D02*
D03*
X-51957Y-10405D02*
D03*
X-47519Y-13711D02*
D03*
Y-12693D02*
D03*
X-17825Y-97175D02*
D03*
X-19645Y-112320D02*
D03*
X-10500Y-104225D02*
D03*
X-24950Y-105800D02*
D03*
X-7250Y-105775D02*
D03*
X-55575Y-120493D02*
D03*
X-54475Y-115705D02*
D03*
X-85025Y-90850D02*
D03*
X-33075Y-52750D02*
D03*
X-48750Y-38162D02*
D03*
X-32850Y-55250D02*
D03*
X-36250Y-61900D02*
D03*
X-50750Y-62025D02*
D03*
X-80425Y-112900D02*
D03*
X-22184Y-26368D02*
D03*
X-23459Y-26368D02*
D03*
X-24734D02*
D03*
X-26009Y-26368D02*
D03*
X-6850Y-8750D02*
D03*
Y-10050D02*
D03*
X-3300Y-12150D02*
D03*
X-10325Y-11450D02*
D03*
X-30075Y-1525D02*
D03*
X-24925Y-1500D02*
D03*
X-10800Y-5675D02*
D03*
X-11200Y-6725D02*
D03*
X-7600Y-1518D02*
D03*
X-4900Y-26500D02*
D03*
Y-25200D02*
D03*
X-9225Y-26500D02*
D03*
X-5050Y-9800D02*
D03*
X-33775Y-16700D02*
D03*
X-59700Y-128275D02*
D03*
X-35350Y-76275D02*
D03*
X-36475Y-82475D02*
D03*
X-36450Y-86925D02*
D03*
X-44475Y-87375D02*
D03*
Y-88525D02*
D03*
Y-89675D02*
D03*
X-25325Y-65325D02*
D03*
X-30150Y-10525D02*
D03*
X-53982Y-10405D02*
D03*
X-5325Y-96125D02*
D03*
X-15175Y-94825D02*
D03*
X-4275Y-93625D02*
D03*
X-85175Y-89600D02*
D03*
X-73325Y-103200D02*
D03*
X-84625Y-88100D02*
D03*
X-37325Y-85625D02*
D03*
Y-81175D02*
D03*
X-34225Y-10525D02*
D03*
X-18814Y-14414D02*
D03*
X-19325Y-14925D02*
D03*
X-84150Y-29975D02*
D03*
X-31800Y-50750D02*
D03*
X-78659Y-26430D02*
D03*
X-73705Y-28970D02*
D03*
X-78659Y-39130D02*
D03*
Y-44210D02*
D03*
Y-51830D02*
D03*
X-73694Y-54331D02*
D03*
X-32875Y-58750D02*
D03*
X-79200Y-77675D02*
D03*
X-73375Y-77700D02*
D03*
X-73425Y-78700D02*
D03*
X-72450Y-79075D02*
D03*
X-83775Y-28350D02*
D03*
X-82875Y-87025D02*
D03*
X-55627Y-89525D02*
D03*
X-54400Y-90650D02*
D03*
X-84433Y-83600D02*
D03*
X-85100Y-84100D02*
D03*
Y-83100D02*
D03*
X-84433Y-84600D02*
D03*
X-70800Y-46925D02*
D03*
X-83200Y-90150D02*
D03*
X-29069Y-91944D02*
D03*
X-86775Y-59075D02*
D03*
X-51757Y-18830D02*
D03*
X-79250Y-86200D02*
D03*
X-77675Y-65625D02*
D03*
X-77176Y-62199D02*
D03*
X-55850Y-115600D02*
D03*
X-52250Y-115275D02*
D03*
X-65025Y-108600D02*
D03*
Y-106300D02*
D03*
Y-104000D02*
D03*
X-22225Y-94075D02*
D03*
X-26025D02*
D03*
X-35125Y-29750D02*
D03*
X-24575Y-75975D02*
D03*
Y-73425D02*
D03*
X-79350Y-79200D02*
D03*
X-72125Y-54325D02*
D03*
X-76600Y-64425D02*
D03*
X-27625Y-29625D02*
D03*
X-28950D02*
D03*
X-36250Y-32000D02*
D03*
X-23459Y-31500D02*
D03*
X-33475Y-29825D02*
D03*
X-29150Y-53150D02*
D03*
X-31250Y-37375D02*
D03*
X-58250Y-44275D02*
D03*
X-17700Y-69650D02*
D03*
X-65875Y-39050D02*
D03*
Y-54475D02*
D03*
X-59057Y-16580D02*
D03*
X-27276Y-71150D02*
D03*
X-32900Y-88025D02*
D03*
X-62535Y-49575D02*
D03*
X-33000Y-56750D02*
D03*
X-2825D02*
D03*
X-2225Y-54475D02*
D03*
X-29575Y-34400D02*
D03*
X-38200Y-47575D02*
D03*
X-44750Y-35550D02*
D03*
X-25300Y-60184D02*
D03*
X-22725Y-34461D02*
D03*
X-18150Y-51850D02*
D03*
X-44625Y-37975D02*
D03*
X-83350Y-100975D02*
D03*
X-44775Y-82150D02*
D03*
X-47250Y-90000D02*
D03*
X-24700Y-4425D02*
D03*
X-39100Y-30250D02*
D03*
X-76150Y-27700D02*
D03*
X-81550Y-44100D02*
D03*
X-78661Y-36587D02*
D03*
X-65050Y-48475D02*
D03*
X-65025Y-109750D02*
D03*
X-71950Y-112125D02*
D03*
X-68295Y-105150D02*
D03*
X-68875Y-104000D02*
D03*
X-66800Y-112925D02*
D03*
X-81725Y-112525D02*
D03*
X-68525Y-106775D02*
D03*
X-78450Y-105625D02*
D03*
X-82525Y-110525D02*
D03*
X-82550Y-109225D02*
D03*
X-55550Y-92830D02*
D03*
X-81186Y-26411D02*
D03*
X-16861Y-94586D02*
D03*
X-82025Y-106400D02*
D03*
X-18025Y-10500D02*
D03*
X-19775Y-6800D02*
D03*
X-22850Y-6775D02*
D03*
X-19075Y-19250D02*
D03*
X-19501Y-11951D02*
D03*
X-79600Y-109275D02*
D03*
X-78850Y-110375D02*
D03*
X-85675Y-111700D02*
D03*
X-82050Y-107950D02*
D03*
X-14300Y-3275D02*
D03*
X-55782Y-22005D02*
D03*
X-42530Y-25675D02*
D03*
X-58800Y-84475D02*
D03*
X-57275Y-88675D02*
D03*
X-83850Y-21725D02*
D03*
X-33525Y-34950D02*
D03*
X-13425Y-98075D02*
D03*
X-12225Y-97475D02*
D03*
X-68425Y-109750D02*
D03*
X-70525Y-108650D02*
D03*
X-73100Y-108650D02*
D03*
X-71075Y-111000D02*
D03*
X-57175Y-84475D02*
D03*
X-51907Y-20805D02*
D03*
X-58182Y-15755D02*
D03*
X-57559Y-14430D02*
D03*
Y-11930D02*
D03*
X-52757Y-17205D02*
D03*
X-81250Y-21975D02*
D03*
X-13950Y-10500D02*
D03*
X-38300Y-25350D02*
D03*
X-64825Y-23237D02*
D03*
X-67100Y-19425D02*
D03*
X-64825Y-22575D02*
D03*
X-73467Y-23887D02*
D03*
Y-21347D02*
D03*
X-66625Y-21475D02*
D03*
X-64825Y-23900D02*
D03*
X-65325Y-27050D02*
D03*
X-76150Y-10169D02*
D03*
X-70850Y-5525D02*
D03*
X-72275Y-17100D02*
D03*
X-85725Y-41700D02*
D03*
X-80525Y-36587D02*
D03*
X-82438Y-56600D02*
D03*
X-64225Y-51450D02*
D03*
X-54200Y-42250D02*
D03*
X-59550Y-47800D02*
D03*
X-40750Y-26450D02*
D03*
X-42230Y-23969D02*
D03*
X-43500D02*
D03*
X-46040D02*
D03*
X-44770D02*
D03*
X-40960Y-19893D02*
D03*
X-38368Y-29053D02*
D03*
X-37150Y-19893D02*
D03*
X-35880D02*
D03*
X-34610D02*
D03*
X-39690D02*
D03*
X-36477Y-23929D02*
D03*
X-23459Y-30014D02*
D03*
X-54200Y-43000D02*
D03*
X-82422Y-50574D02*
D03*
Y-49848D02*
D03*
X-82425Y-51350D02*
D03*
X-51111Y-37966D02*
D03*
X-64356Y-2665D02*
D03*
X-26975Y-50100D02*
D03*
X-35925Y-52250D02*
D03*
X-29775Y-43750D02*
D03*
X-49084Y-5747D02*
D03*
X-29675Y-4075D02*
D03*
X-45703Y-6978D02*
D03*
X-33419Y-32600D02*
D03*
X-85175Y-85950D02*
D03*
X-26200Y-42875D02*
D03*
X-17000Y-13825D02*
D03*
X-27250Y-65000D02*
D03*
Y-66600D02*
D03*
X-28650Y-65000D02*
D03*
X-30050Y-66600D02*
D03*
Y-65000D02*
D03*
X-28650Y-66600D02*
D03*
X-84034Y-73353D02*
D03*
X-83042Y-73908D02*
D03*
Y-75000D02*
D03*
X-83981Y-74596D02*
D03*
X-84275Y-76600D02*
D03*
X-57250Y-42775D02*
D03*
X-44450Y-62150D02*
D03*
X-45750Y-66400D02*
D03*
X-56894Y-40653D02*
D03*
X-35950Y-56264D02*
D03*
Y-58250D02*
D03*
Y-57250D02*
D03*
Y-50975D02*
D03*
Y-53264D02*
D03*
X-38400Y-54775D02*
D03*
X-35750Y-54750D02*
D03*
X-36325Y-54250D02*
D03*
X-38710Y-52341D02*
D03*
X-36675Y-42750D02*
D03*
X-35675Y-37125D02*
D03*
X-46967Y-37813D02*
D03*
X-47750Y-38150D02*
D03*
X-45750D02*
D03*
X-24450Y-35023D02*
D03*
X-23825Y-37462D02*
D03*
X-23300Y-38356D02*
D03*
X-35825Y-42800D02*
D03*
X-35825Y-41750D02*
D03*
X-35425Y-39700D02*
D03*
X-40250Y-40750D02*
D03*
X-48250Y-40650D02*
D03*
X-46750D02*
D03*
X-45250D02*
D03*
X-43750D02*
D03*
X-45250Y-43302D02*
D03*
X-35925Y-43750D02*
D03*
X-35952Y-45752D02*
D03*
X-35950Y-44750D02*
D03*
X-41750Y-43302D02*
D03*
X-41725Y-45125D02*
D03*
X-42725Y-45750D02*
D03*
X-43776Y-45173D02*
D03*
X-45025Y-47575D02*
D03*
X-54300Y-49750D02*
D03*
Y-48750D02*
D03*
X-54105Y-47110D02*
D03*
X-53683Y-48121D02*
D03*
X-50794Y-52000D02*
D03*
Y-50513D02*
D03*
Y-49550D02*
D03*
X-50081Y-49050D02*
D03*
X-49587Y-46934D02*
D03*
X-53775Y-52000D02*
D03*
X-42750Y-44125D02*
D03*
X-44075Y-43450D02*
D03*
X-46750Y-43700D02*
D03*
X-48250Y-43450D02*
D03*
X-37100Y-36750D02*
D03*
X-41750Y-40650D02*
D03*
X-42800Y-40750D02*
D03*
X-55450Y-66100D02*
D03*
X-44800Y-66800D02*
D03*
D117*
X-54025Y-72050D02*
D03*
X-57050Y-74500D02*
D03*
X-54050Y-75025D02*
D03*
X-54647Y-74225D02*
D03*
X-57050Y-71625D02*
D03*
X-50139Y-71990D02*
D03*
X-50794Y-73575D02*
D03*
X-53197Y-74875D02*
D03*
Y-74229D02*
D03*
X-54575Y-72925D02*
D03*
X-56450Y-75150D02*
D03*
X-51397Y-71625D02*
D03*
Y-72925D02*
D03*
X-56447Y-72275D02*
D03*
Y-73575D02*
D03*
X-26850Y-20075D02*
D03*
X-29225Y-18125D02*
D03*
Y-18775D02*
D03*
X-56447Y-70975D02*
D03*
X-56422Y-80075D02*
D03*
X-24900Y-16825D02*
D03*
X-54647Y-75525D02*
D03*
Y-79425D02*
D03*
X-24900Y-15525D02*
D03*
X-22950Y-18125D02*
D03*
X-24250Y-17475D02*
D03*
X-25550Y-16825D02*
D03*
X-26200D02*
D03*
X-24900Y-16175D02*
D03*
X-24900Y-18125D02*
D03*
X-25400Y-13525D02*
D03*
X-23600Y-15525D02*
D03*
X-53197Y-78775D02*
D03*
X-23925Y-13625D02*
D03*
X-23250Y-13300D02*
D03*
X-23425Y-14000D02*
D03*
X-20975Y-18125D02*
D03*
X-54647Y-77475D02*
D03*
X-53197Y-76825D02*
D03*
X-87274Y-69600D02*
D03*
Y-71600D02*
D03*
Y-73600D02*
D03*
Y-74600D02*
D03*
Y-75600D02*
D03*
X-85026Y-77100D02*
D03*
Y-76100D02*
D03*
Y-74100D02*
D03*
Y-73100D02*
D03*
Y-72100D02*
D03*
Y-71100D02*
D03*
D118*
X-77000Y-108275D02*
D03*
Y-107075D02*
D03*
X-75800Y-108275D02*
D03*
Y-107075D02*
D03*
M02*
