G04 Layer_Color=128*
%FSLAX43Y43*%
%MOMM*%
G71*
G01*
G75*
%ADD11R,0.550X0.600*%
%ADD12R,0.600X0.550*%
%ADD13R,0.800X0.650*%
%ADD14R,0.650X0.500*%
%ADD15R,0.500X0.650*%
%ADD19R,0.650X0.800*%
%ADD20R,1.092X1.600*%
%ADD22R,0.700X0.700*%
%ADD24R,0.900X0.600*%
%ADD25R,0.600X0.900*%
%ADD27R,0.762X0.762*%
%ADD30R,1.500X1.350*%
%ADD31R,1.350X1.500*%
%ADD35R,1.100X0.600*%
%ADD61R,1.300X1.600*%
%ADD124R,0.650X1.050*%
%ADD125O,1.524X0.381*%
%ADD126O,0.850X0.280*%
%ADD127O,0.280X0.850*%
%ADD129R,0.600X1.300*%
%ADD130R,1.400X0.600*%
%ADD133C,0.280*%
%ADD134R,1.300X0.600*%
%ADD135R,1.700X0.350*%
%ADD136R,0.350X0.850*%
%ADD137R,3.000X3.000*%
%ADD138R,0.800X2.000*%
%ADD139R,2.000X1.100*%
%ADD140R,0.230X0.700*%
%ADD141R,0.700X0.230*%
%ADD143C,0.800*%
%ADD264C,0.600*%
%ADD265R,0.700X0.700*%
%ADD266R,3.450X0.730*%
%ADD267R,0.730X3.450*%
D11*
X-37725Y-42750D02*
D03*
Y-43750D02*
D03*
X-37100Y-37825D02*
D03*
Y-38825D02*
D03*
X-48250Y-41526D02*
D03*
Y-42526D02*
D03*
X-46750Y-41526D02*
D03*
Y-42526D02*
D03*
X-45250Y-41526D02*
D03*
Y-42526D02*
D03*
X-43750Y-41526D02*
D03*
Y-42526D02*
D03*
X-42750Y-41526D02*
D03*
Y-42526D02*
D03*
X-41750Y-41526D02*
D03*
Y-42526D02*
D03*
X-54350Y-85416D02*
D03*
Y-84416D02*
D03*
X-53483Y-85416D02*
D03*
Y-84416D02*
D03*
X-52617Y-85416D02*
D03*
Y-84416D02*
D03*
X-49107Y-13711D02*
D03*
Y-14711D02*
D03*
X-48207D02*
D03*
Y-13711D02*
D03*
X-88175Y-12000D02*
D03*
Y-13000D02*
D03*
X-49107Y-12693D02*
D03*
Y-11693D02*
D03*
X-88175Y-14625D02*
D03*
Y-15625D02*
D03*
X-48207Y-11693D02*
D03*
Y-12693D02*
D03*
X-51957Y-5955D02*
D03*
Y-6955D02*
D03*
X-51957Y-4505D02*
D03*
Y-3505D02*
D03*
X-52832Y-19505D02*
D03*
Y-20505D02*
D03*
X-52832Y-21930D02*
D03*
Y-22930D02*
D03*
X-28950Y-4075D02*
D03*
Y-5075D02*
D03*
X-28950Y-6075D02*
D03*
Y-7075D02*
D03*
X-20175Y-15900D02*
D03*
Y-14900D02*
D03*
Y-12900D02*
D03*
Y-13900D02*
D03*
X-67050Y-5021D02*
D03*
Y-4021D02*
D03*
X-69004Y-4020D02*
D03*
Y-5020D02*
D03*
D12*
X-35425Y-40600D02*
D03*
X-36425D02*
D03*
X-36843Y-56264D02*
D03*
X-37843D02*
D03*
X-52767Y-50513D02*
D03*
X-51767D02*
D03*
X-36843Y-53264D02*
D03*
X-37843D02*
D03*
X-36843Y-58251D02*
D03*
X-37843D02*
D03*
X-52767Y-52000D02*
D03*
X-51767D02*
D03*
X-36843Y-50975D02*
D03*
X-37843D02*
D03*
X-52767Y-49550D02*
D03*
X-51767D02*
D03*
X-36843Y-57251D02*
D03*
X-37843D02*
D03*
X-52767Y-47641D02*
D03*
X-51767D02*
D03*
X-52767Y-48600D02*
D03*
X-51767D02*
D03*
X-57848Y-82777D02*
D03*
X-56848D02*
D03*
X-61665Y-79905D02*
D03*
X-60665D02*
D03*
X-61665Y-79100D02*
D03*
X-60665D02*
D03*
X-61665Y-78295D02*
D03*
X-60665D02*
D03*
X-61665Y-77490D02*
D03*
X-60665D02*
D03*
X-61665Y-76685D02*
D03*
X-60665D02*
D03*
X-61665Y-75880D02*
D03*
X-60665D02*
D03*
X-46210Y-75891D02*
D03*
X-47210D02*
D03*
X-46210Y-76696D02*
D03*
X-47210D02*
D03*
X-46210Y-77501D02*
D03*
X-47210D02*
D03*
X-46210Y-78306D02*
D03*
X-47210D02*
D03*
X-46210Y-79111D02*
D03*
X-47210D02*
D03*
X-46210Y-79916D02*
D03*
X-47210D02*
D03*
X-52757Y-18080D02*
D03*
X-51757D02*
D03*
X-86325Y-8025D02*
D03*
X-85325D02*
D03*
X-86825Y-16950D02*
D03*
X-85825D02*
D03*
X-16975Y-15525D02*
D03*
X-17975D02*
D03*
X-51767Y-45705D02*
D03*
X-52767D02*
D03*
X-51767Y-44522D02*
D03*
X-52767D02*
D03*
X-51762Y-43606D02*
D03*
X-52762D02*
D03*
X-59170Y-42775D02*
D03*
X-58170D02*
D03*
X-51767Y-46702D02*
D03*
X-52767D02*
D03*
D13*
X-30550Y-4075D02*
D03*
X-31750D02*
D03*
X-67056Y-10216D02*
D03*
X-65856D02*
D03*
X-79377Y-40421D02*
D03*
X-78177D02*
D03*
X-82359Y-35560D02*
D03*
X-81159D02*
D03*
X-78050Y-45494D02*
D03*
X-76850D02*
D03*
X-78050Y-48034D02*
D03*
X-76850D02*
D03*
X-57060Y-53525D02*
D03*
X-58260D02*
D03*
X-55603Y-46394D02*
D03*
X-56803D02*
D03*
X-58150Y-41250D02*
D03*
X-59350D02*
D03*
X-71500Y-4675D02*
D03*
X-70300D02*
D03*
X-65856Y-11430D02*
D03*
X-67056D02*
D03*
X-66777Y-1650D02*
D03*
X-67977D02*
D03*
X-62918D02*
D03*
X-64118D02*
D03*
X-63800Y-10625D02*
D03*
X-62600D02*
D03*
X-21250Y-9500D02*
D03*
X-20050D02*
D03*
X-21800Y-3525D02*
D03*
X-20600D02*
D03*
X-14400Y-9075D02*
D03*
X-13200D02*
D03*
X-5800Y-25200D02*
D03*
X-7000D02*
D03*
X-5800Y-26500D02*
D03*
X-7000D02*
D03*
X-10125D02*
D03*
X-11325D02*
D03*
X-5500Y-11100D02*
D03*
X-4300D02*
D03*
X-3000D02*
D03*
X-1800D02*
D03*
X-9275Y-14850D02*
D03*
X-10475D02*
D03*
D14*
X-55507Y-70321D02*
D03*
X-56457D02*
D03*
X-56605Y-81623D02*
D03*
X-55655D02*
D03*
X-56605Y-80773D02*
D03*
X-55655D02*
D03*
X-50232Y-13661D02*
D03*
X-51182D02*
D03*
X-50232Y-12743D02*
D03*
X-51182D02*
D03*
X-50232Y-15080D02*
D03*
X-51182D02*
D03*
X-50232Y-11324D02*
D03*
X-51182D02*
D03*
X-50232Y-10405D02*
D03*
X-51182D02*
D03*
X-24775Y-22950D02*
D03*
X-25725D02*
D03*
X-24775Y-22200D02*
D03*
X-25725D02*
D03*
X-19200Y-18000D02*
D03*
X-20150D02*
D03*
X-22800Y-12700D02*
D03*
X-23750D02*
D03*
X-22800Y-11800D02*
D03*
X-23750D02*
D03*
X-25850Y-12700D02*
D03*
X-24900D02*
D03*
X-25850Y-11800D02*
D03*
X-24900D02*
D03*
X-32025Y-15600D02*
D03*
X-31075D02*
D03*
X-17000Y-16425D02*
D03*
X-17950D02*
D03*
D15*
X-16900Y-21225D02*
D03*
Y-22175D02*
D03*
Y-20275D02*
D03*
Y-19325D02*
D03*
X-52300Y-77675D02*
D03*
Y-76725D02*
D03*
X-53922Y-76650D02*
D03*
Y-77600D02*
D03*
X-52300Y-79625D02*
D03*
Y-78675D02*
D03*
X-55377Y-78625D02*
D03*
Y-79575D02*
D03*
X-55547Y-76650D02*
D03*
Y-75700D02*
D03*
X-52832Y-6930D02*
D03*
Y-5980D02*
D03*
X-52832Y-4480D02*
D03*
Y-3530D02*
D03*
X-52007Y-21930D02*
D03*
Y-22880D02*
D03*
X-58982Y-13605D02*
D03*
Y-12655D02*
D03*
X-30750Y-19075D02*
D03*
Y-18125D02*
D03*
X-29875Y-19075D02*
D03*
Y-18125D02*
D03*
X-67986Y-4046D02*
D03*
Y-4996D02*
D03*
D19*
X-27631Y-27562D02*
D03*
Y-28762D02*
D03*
X-28956Y-27562D02*
D03*
Y-28762D02*
D03*
X-35131Y-27569D02*
D03*
Y-28769D02*
D03*
X-40600Y-64350D02*
D03*
Y-65550D02*
D03*
X-52725Y-54600D02*
D03*
Y-55800D02*
D03*
X-44028Y-65549D02*
D03*
Y-64349D02*
D03*
X-39478Y-64349D02*
D03*
Y-65549D02*
D03*
X-41728Y-65549D02*
D03*
Y-64349D02*
D03*
X-42878Y-64349D02*
D03*
Y-65549D02*
D03*
X-38328Y-64349D02*
D03*
Y-65549D02*
D03*
X-71300Y-24275D02*
D03*
Y-23075D02*
D03*
X-35325Y-10950D02*
D03*
Y-12150D02*
D03*
X-36600Y-12150D02*
D03*
Y-10950D02*
D03*
X-33481Y-27569D02*
D03*
Y-28769D02*
D03*
X-22191Y-28762D02*
D03*
Y-27562D02*
D03*
X-23466Y-28762D02*
D03*
Y-27562D02*
D03*
X-24741Y-28762D02*
D03*
Y-27562D02*
D03*
X-26016Y-28762D02*
D03*
Y-27562D02*
D03*
X-31881Y-28769D02*
D03*
Y-27569D02*
D03*
X-17100Y-10500D02*
D03*
Y-11700D02*
D03*
X-13675Y-6575D02*
D03*
Y-7775D02*
D03*
X-11800Y-14900D02*
D03*
Y-16100D02*
D03*
X-57507Y-2030D02*
D03*
Y-3230D02*
D03*
X-1800Y-8600D02*
D03*
Y-9800D02*
D03*
X-5700Y-9800D02*
D03*
Y-8600D02*
D03*
X-56132Y-3230D02*
D03*
Y-2030D02*
D03*
X-30281Y-28762D02*
D03*
Y-27562D02*
D03*
X-72526Y-10160D02*
D03*
Y-11360D02*
D03*
X-74983Y-11369D02*
D03*
Y-10169D02*
D03*
D20*
X-56032Y-6155D02*
D03*
X-54000D02*
D03*
X-56032Y-20205D02*
D03*
X-54000D02*
D03*
X-56607Y-8905D02*
D03*
X-54575D02*
D03*
X-56582Y-17405D02*
D03*
X-54550D02*
D03*
D22*
X-69875Y-19225D02*
D03*
X-68975Y-20125D02*
D03*
X-31250Y-16700D02*
D03*
X-32650D02*
D03*
D24*
X-21750Y-4650D02*
D03*
X-20650D02*
D03*
X-21200Y-10675D02*
D03*
X-20100D02*
D03*
X-65906Y-12637D02*
D03*
X-67006D02*
D03*
X-67006Y-13834D02*
D03*
X-65906D02*
D03*
D25*
X-72125Y-18225D02*
D03*
Y-19325D02*
D03*
X-65857Y-7359D02*
D03*
Y-8459D02*
D03*
X-73755Y-11319D02*
D03*
Y-10219D02*
D03*
D27*
X-51405Y-16205D02*
D03*
X-50008D02*
D03*
D30*
X-65200Y-19175D02*
D03*
Y-20825D02*
D03*
D31*
X-66775Y-16300D02*
D03*
X-68425D02*
D03*
D35*
X-69699Y-6437D02*
D03*
Y-7387D02*
D03*
Y-8337D02*
D03*
X-67299D02*
D03*
Y-7387D02*
D03*
Y-6437D02*
D03*
D61*
X-13100Y-22150D02*
D03*
Y-18350D02*
D03*
X-15400D02*
D03*
Y-22150D02*
D03*
D124*
X-25772Y-6875D02*
D03*
X-26725D02*
D03*
X-27678D02*
D03*
Y-4425D02*
D03*
X-25772D02*
D03*
X-68865Y-10013D02*
D03*
X-69818D02*
D03*
X-70771D02*
D03*
X-68865Y-12463D02*
D03*
X-70771D02*
D03*
D125*
X-70063Y-3375D02*
D03*
Y-2725D02*
D03*
Y-2075D02*
D03*
Y-1425D02*
D03*
X-74687Y-1425D02*
D03*
Y-2075D02*
D03*
Y-2725D02*
D03*
Y-3375D02*
D03*
D126*
X-67950Y-20425D02*
D03*
Y-19925D02*
D03*
Y-19425D02*
D03*
Y-18925D02*
D03*
X-70900D02*
D03*
Y-19425D02*
D03*
Y-19925D02*
D03*
Y-20425D02*
D03*
D127*
X-68675Y-18200D02*
D03*
X-69175D02*
D03*
X-69675D02*
D03*
X-70175D02*
D03*
Y-21150D02*
D03*
X-69675D02*
D03*
X-69175D02*
D03*
X-68675D02*
D03*
D129*
X-85825Y-15475D02*
D03*
X-84875Y-13375D02*
D03*
X-86775D02*
D03*
X-85825Y-11600D02*
D03*
X-84875Y-9500D02*
D03*
X-86775D02*
D03*
X-74450Y-18025D02*
D03*
X-73500Y-15925D02*
D03*
X-75400D02*
D03*
D130*
X-62398Y-7268D02*
D03*
Y-9168D02*
D03*
X-64298Y-8218D02*
D03*
X-65523Y-3456D02*
D03*
Y-5356D02*
D03*
X-63623Y-4406D02*
D03*
D133*
X-27825Y-14550D02*
D03*
X-27175D02*
D03*
X-26525D02*
D03*
X-25875D02*
D03*
X-25225D02*
D03*
X-24575D02*
D03*
X-23925D02*
D03*
X-23275D02*
D03*
X-22625D02*
D03*
X-21975D02*
D03*
X-27825Y-15200D02*
D03*
X-27175D02*
D03*
X-26525D02*
D03*
X-25875D02*
D03*
X-25225D02*
D03*
X-24575D02*
D03*
X-23925D02*
D03*
X-23275D02*
D03*
X-22625D02*
D03*
X-21975D02*
D03*
X-27825Y-15850D02*
D03*
X-27175D02*
D03*
X-26525D02*
D03*
X-25875D02*
D03*
X-25225D02*
D03*
X-24575D02*
D03*
X-23925D02*
D03*
X-23275D02*
D03*
X-22625D02*
D03*
X-27825Y-16500D02*
D03*
X-27175D02*
D03*
X-26525D02*
D03*
X-25875D02*
D03*
X-25225D02*
D03*
X-24575D02*
D03*
X-23925D02*
D03*
X-23275D02*
D03*
X-22625D02*
D03*
X-27825Y-17150D02*
D03*
X-27175D02*
D03*
X-26525D02*
D03*
X-25875D02*
D03*
X-25225D02*
D03*
X-24575D02*
D03*
X-23925D02*
D03*
X-23275D02*
D03*
X-22625D02*
D03*
X-27825Y-18450D02*
D03*
X-27175D02*
D03*
X-26525D02*
D03*
X-25875D02*
D03*
X-25225D02*
D03*
X-24575D02*
D03*
X-23925D02*
D03*
X-23275D02*
D03*
X-22625D02*
D03*
X-27825Y-19100D02*
D03*
X-27175D02*
D03*
X-26525D02*
D03*
X-25875D02*
D03*
X-25225D02*
D03*
X-24575D02*
D03*
X-23925D02*
D03*
X-23275D02*
D03*
X-22625D02*
D03*
X-27825Y-19750D02*
D03*
X-27175D02*
D03*
X-26525D02*
D03*
X-25875D02*
D03*
X-25225D02*
D03*
X-24575D02*
D03*
X-23925D02*
D03*
X-23275D02*
D03*
X-22625D02*
D03*
X-27825Y-20400D02*
D03*
X-27175D02*
D03*
X-26525D02*
D03*
X-25875D02*
D03*
X-25225D02*
D03*
X-24575D02*
D03*
X-23925D02*
D03*
X-23275D02*
D03*
X-22625D02*
D03*
X-27825Y-17800D02*
D03*
X-27175D02*
D03*
X-26525D02*
D03*
X-25875D02*
D03*
X-25225D02*
D03*
X-24575D02*
D03*
X-23925D02*
D03*
X-23275D02*
D03*
X-22625D02*
D03*
X-21975D02*
D03*
Y-15850D02*
D03*
Y-16500D02*
D03*
Y-17150D02*
D03*
Y-18450D02*
D03*
Y-19100D02*
D03*
Y-19750D02*
D03*
Y-20400D02*
D03*
D134*
X-11450Y-13350D02*
D03*
Y-11450D02*
D03*
X-9350Y-12400D02*
D03*
X-15550Y-12400D02*
D03*
Y-10500D02*
D03*
X-13450Y-11450D02*
D03*
Y-14050D02*
D03*
Y-15950D02*
D03*
X-15550Y-15000D02*
D03*
X-60798Y-13931D02*
D03*
Y-12031D02*
D03*
X-62898Y-12981D02*
D03*
D135*
X-21325Y-8100D02*
D03*
Y-7450D02*
D03*
Y-6800D02*
D03*
Y-6150D02*
D03*
X-15625Y-8100D02*
D03*
Y-7450D02*
D03*
Y-6800D02*
D03*
Y-6150D02*
D03*
D136*
X-4375Y-7875D02*
D03*
X-3725D02*
D03*
X-3075D02*
D03*
Y-9725D02*
D03*
X-3725D02*
D03*
X-4375D02*
D03*
D137*
X-29978Y-121700D02*
D03*
Y-108700D02*
D03*
X-60128D02*
D03*
Y-121700D02*
D03*
D138*
X-38748Y-104700D02*
D03*
X-41248D02*
D03*
X-43748D02*
D03*
X-46248D02*
D03*
X-48748D02*
D03*
X-51248D02*
D03*
X-53678D02*
D03*
X-55378D02*
D03*
X-36248D02*
D03*
X-57378D02*
D03*
D139*
X-59628Y-115650D02*
D03*
Y-125700D02*
D03*
D140*
X-53482Y-15130D02*
D03*
X-53982D02*
D03*
X-54482D02*
D03*
X-54982D02*
D03*
X-55482D02*
D03*
X-55982D02*
D03*
Y-11230D02*
D03*
X-55482D02*
D03*
X-54982D02*
D03*
X-54482D02*
D03*
X-53982D02*
D03*
X-53482D02*
D03*
D141*
X-56682Y-14430D02*
D03*
Y-13930D02*
D03*
Y-13430D02*
D03*
Y-12930D02*
D03*
Y-12430D02*
D03*
Y-11930D02*
D03*
X-52782D02*
D03*
Y-12430D02*
D03*
Y-12930D02*
D03*
Y-13430D02*
D03*
Y-13930D02*
D03*
Y-14430D02*
D03*
D143*
X-63020Y-79905D02*
D03*
X-60797Y-83723D02*
D03*
X-61162Y-82034D02*
D03*
X-82203Y-73353D02*
D03*
X-82075Y-71925D02*
D03*
X-81050Y-71100D02*
D03*
X-83939Y-68039D02*
D03*
X-83392Y-66634D02*
D03*
X-80967Y-77076D02*
D03*
X-82325Y-77853D02*
D03*
X-77591Y-78658D02*
D03*
X-74687Y-79715D02*
D03*
X-73090Y-80379D02*
D03*
X-75436Y-81807D02*
D03*
X-76780Y-82827D02*
D03*
X-77252Y-84924D02*
D03*
X-61425Y-1650D02*
D03*
X-68411Y-14313D02*
D03*
X-73300Y-4675D02*
D03*
X-60707Y-8480D02*
D03*
X-60982Y-17730D02*
D03*
X-73625Y-19525D02*
D03*
X-62050Y-5875D02*
D03*
D264*
X-55382Y-13830D02*
D03*
Y-12530D02*
D03*
X-54082Y-13830D02*
D03*
Y-12530D02*
D03*
X-54732Y-13180D02*
D03*
D265*
X-69875Y-20125D02*
D03*
X-68975Y-19225D02*
D03*
D266*
X-58857Y-4645D02*
D03*
Y-7015D02*
D03*
Y-21740D02*
D03*
Y-19370D02*
D03*
D267*
X-66315Y-24125D02*
D03*
X-68685D02*
D03*
M02*
