G04 Layer_Physical_Order=3*
G04 Layer_Color=128*
%FSLAX43Y43*%
%MOMM*%
G71*
G01*
G75*
%ADD83C,0.300*%
%ADD102C,1.016*%
%ADD104C,2.100*%
%ADD105C,1.600*%
%ADD106C,1.900*%
G04:AMPARAMS|DCode=107|XSize=2.524mm|YSize=2.524mm|CornerRadius=0mm|HoleSize=0mm|Usage=FLASHONLY|Rotation=0.000|XOffset=0mm|YOffset=0mm|HoleType=Round|Shape=Relief|Width=0.254mm|Gap=0.254mm|Entries=4|*
%AMTHD107*
7,0,0,2.524,2.016,0.254,45*
%
%ADD107THD107*%
%ADD108O,1.425X2.100*%
%ADD109O,1.250X1.450*%
%ADD110C,3.600*%
%ADD112O,4.100X1.800*%
%ADD114C,1.790*%
%ADD115C,1.620*%
%ADD116C,0.850*%
%ADD117C,0.800*%
%ADD118C,0.930*%
%ADD119C,3.300*%
%ADD120O,1.900X3.600*%
%ADD121O,3.600X1.800*%
%ADD122C,0.950*%
D83*
X-37300Y-29600D02*
X-36250Y-30650D01*
X-55000Y-40000D02*
X-35000D01*
Y-60000D02*
Y-40000D01*
X-55000Y-60000D02*
X-35000D01*
X-55000D02*
Y-40000D01*
X-62000Y-57050D02*
Y-40675D01*
X-64389Y-21336D02*
X-62900Y-22825D01*
X-37300Y-29600D02*
Y-10150D01*
X-39225Y-8225D02*
X-37300Y-10150D01*
X-42925Y-8225D02*
X-39225D01*
X-45250Y-10550D02*
X-42925Y-8225D01*
X-45250Y-23925D02*
Y-10550D01*
X-62000Y-40675D02*
X-45250Y-23925D01*
X-51525Y-15850D02*
Y-5969D01*
X-57658Y0D02*
X-56837D01*
Y-5975D02*
Y0D01*
X-61093Y-5975D02*
X-56837D01*
X-34000Y-27500D02*
X-4500D01*
X-35750Y-25750D02*
X-34000Y-27500D01*
X-4500D02*
Y-18300D01*
X-5842Y-16958D02*
X-4500Y-18300D01*
X-5842Y-16958D02*
Y-14478D01*
X-816D01*
X-38131Y-5969D02*
X-35750Y-8350D01*
X-58420Y-5969D02*
X-38131D01*
X-816Y-14478D02*
X-252Y-15042D01*
X-64389Y-9271D02*
X-61093Y-5975D01*
X-64389Y-21336D02*
Y-9271D01*
X-51525Y-5969D02*
X-45339D01*
X-35750Y-25750D02*
Y-8350D01*
X-62000Y-57050D02*
X-53875Y-65175D01*
X-34963D01*
X-30775Y-60987D01*
Y-36125D01*
X-36250Y-30650D02*
X-30775Y-36125D01*
X-62900Y-22825D02*
X-58500D01*
X-51525Y-15850D01*
D102*
X-10600Y-350D02*
G03*
X-9825Y-1I0J1036D01*
G01*
X-21375D02*
G03*
X-20600Y-350I776J686D01*
G01*
X-43434Y-350D02*
G03*
X-42659Y-1I0J1036D01*
G01*
X-54209D02*
G03*
X-53434Y-350I776J686D01*
G01*
X-90000Y-135000D02*
Y0D01*
X-54209D01*
Y-1D02*
Y0D01*
X-53434Y-350D02*
X-43434D01*
Y-350D01*
X-42659Y-1D02*
Y0D01*
X-21375D01*
Y-1D02*
Y0D01*
X-20600Y-350D02*
X-10600D01*
Y-350D01*
X-9825Y-1D02*
Y0D01*
X0D01*
Y-135000D02*
Y0D01*
X-90000Y-135000D02*
X0D01*
D104*
X-33028Y-129200D02*
D03*
X-57628D02*
D03*
D105*
X-60350Y-132945D02*
D03*
Y-130405D02*
D03*
X-27442Y-51755D02*
D03*
X-4430Y-74450D02*
D03*
Y-64290D02*
D03*
Y-66830D02*
D03*
X-6970D02*
D03*
X-4430Y-69370D02*
D03*
X-6970D02*
D03*
X-4430Y-71910D02*
D03*
X-6970D02*
D03*
Y-74450D02*
D03*
Y-87150D02*
D03*
Y-84610D02*
D03*
X-4430D02*
D03*
X-6970Y-82070D02*
D03*
X-4430D02*
D03*
X-6970Y-79530D02*
D03*
X-4430D02*
D03*
Y-76990D02*
D03*
X-6970D02*
D03*
Y-64290D02*
D03*
X-19670Y-58194D02*
D03*
Y-55654D02*
D03*
Y-50574D02*
D03*
Y-53114D02*
D03*
Y-63274D02*
D03*
Y-60734D02*
D03*
Y-65814D02*
D03*
Y-68354D02*
D03*
Y-81054D02*
D03*
Y-78514D02*
D03*
Y-73434D02*
D03*
Y-75974D02*
D03*
Y-86134D02*
D03*
Y-83594D02*
D03*
Y-88674D02*
D03*
Y-91214D02*
D03*
X-67930Y-42954D02*
D03*
Y-45494D02*
D03*
Y-50574D02*
D03*
Y-48034D02*
D03*
Y-37874D02*
D03*
Y-32794D02*
D03*
Y-65814D02*
D03*
Y-68354D02*
D03*
Y-73434D02*
D03*
Y-70894D02*
D03*
Y-60734D02*
D03*
Y-63274D02*
D03*
Y-58194D02*
D03*
Y-55654D02*
D03*
X-61550Y-42960D02*
D03*
Y-45500D02*
D03*
X-39990Y-71021D02*
D03*
X-42530D02*
D03*
X-39990Y-68481D02*
D03*
X-45070Y-71021D02*
D03*
X-42530Y-68481D02*
D03*
X-45070D02*
D03*
X-47610Y-98834D02*
D03*
Y-101374D02*
D03*
X-45070Y-98834D02*
D03*
Y-101374D02*
D03*
X-50150Y-98834D02*
D03*
Y-101374D02*
D03*
X-52690D02*
D03*
Y-98834D02*
D03*
X-55230Y-101374D02*
D03*
Y-98834D02*
D03*
X-57770Y-101374D02*
D03*
Y-98834D02*
D03*
X-60310Y-101374D02*
D03*
Y-98834D02*
D03*
X-42530D02*
D03*
Y-101374D02*
D03*
X-39990Y-98834D02*
D03*
Y-101374D02*
D03*
X-37450Y-98834D02*
D03*
Y-101374D02*
D03*
X-34910Y-98834D02*
D03*
Y-101374D02*
D03*
X-32370D02*
D03*
Y-98834D02*
D03*
X-19670D02*
D03*
Y-101374D02*
D03*
X-22210D02*
D03*
Y-98834D02*
D03*
X-24750Y-101374D02*
D03*
Y-98834D02*
D03*
X-27290Y-101374D02*
D03*
Y-98834D02*
D03*
X-29830Y-101374D02*
D03*
Y-98834D02*
D03*
X-62850D02*
D03*
Y-101374D02*
D03*
X-38730Y-10950D02*
D03*
X-4430Y-38890D02*
D03*
Y-28730D02*
D03*
Y-31270D02*
D03*
X-6970D02*
D03*
X-4430Y-33810D02*
D03*
X-6970D02*
D03*
X-4430Y-36350D02*
D03*
X-6970D02*
D03*
Y-38890D02*
D03*
Y-51590D02*
D03*
Y-49050D02*
D03*
X-4430D02*
D03*
X-6970Y-46510D02*
D03*
X-4430D02*
D03*
X-6970Y-43970D02*
D03*
X-4430D02*
D03*
Y-41430D02*
D03*
X-6970D02*
D03*
Y-28730D02*
D03*
X-4430Y-13490D02*
D03*
X-6970Y-16030D02*
D03*
Y-13490D02*
D03*
X-62510Y-20987D02*
D03*
Y-18447D02*
D03*
X-84440Y-45494D02*
D03*
X-86980D02*
D03*
X-84440Y-48034D02*
D03*
X-86980D02*
D03*
X-84440Y-50574D02*
D03*
X-86980D02*
D03*
X-84440Y-53114D02*
D03*
X-86980D02*
D03*
Y-42954D02*
D03*
Y-40414D02*
D03*
X-84440D02*
D03*
X-86980Y-37874D02*
D03*
X-84440D02*
D03*
X-86980Y-35334D02*
D03*
X-84440D02*
D03*
X-86980Y-32794D02*
D03*
X-84440D02*
D03*
Y-42954D02*
D03*
X-27442Y-41430D02*
D03*
Y-38890D02*
D03*
Y-36350D02*
D03*
X-19670Y-23650D02*
D03*
Y-26190D02*
D03*
Y-46510D02*
D03*
Y-43970D02*
D03*
Y-38890D02*
D03*
Y-41430D02*
D03*
Y-31270D02*
D03*
Y-28730D02*
D03*
Y-33810D02*
D03*
Y-36350D02*
D03*
X-67930Y-88674D02*
D03*
Y-91214D02*
D03*
Y-96294D02*
D03*
Y-93754D02*
D03*
Y-83594D02*
D03*
Y-86134D02*
D03*
Y-81054D02*
D03*
Y-78514D02*
D03*
D106*
X-67925Y-123475D02*
D03*
Y-129775D02*
D03*
X-80425Y-123525D02*
D03*
Y-129825D02*
D03*
D107*
X-27442Y-54295D02*
D03*
X-4430Y-87150D02*
D03*
X-67930Y-40414D02*
D03*
Y-35334D02*
D03*
X-41270Y-10950D02*
D03*
X-4430Y-51590D02*
D03*
Y-16030D02*
D03*
X-86980Y-55654D02*
D03*
X-84440D02*
D03*
D108*
X-44347Y-1675D02*
D03*
X-52521D02*
D03*
X-11512D02*
D03*
X-19688D02*
D03*
D109*
X-50659Y-4800D02*
D03*
X-46209D02*
D03*
X-17825D02*
D03*
X-13375D02*
D03*
D110*
X-22425Y-129095D02*
D03*
X-9725D02*
D03*
D112*
X-74450Y-13700D02*
D03*
D114*
X-76185Y-54384D02*
D03*
Y-21364D02*
D03*
D115*
X-80670Y-94010D02*
D03*
Y-73890D02*
D03*
D116*
X-69925Y-19175D02*
D03*
Y-20175D02*
D03*
X-68925D02*
D03*
Y-19175D02*
D03*
X-78903Y-54384D02*
D03*
X-61725Y-89375D02*
D03*
X-56005Y-82777D02*
D03*
X-59769Y-79911D02*
D03*
Y-79119D02*
D03*
Y-78327D02*
D03*
Y-77534D02*
D03*
Y-76742D02*
D03*
Y-75950D02*
D03*
X-54355Y-83560D02*
D03*
X-53489D02*
D03*
X-52622D02*
D03*
X-48075Y-79911D02*
D03*
X-48075Y-79106D02*
D03*
X-48075Y-78301D02*
D03*
Y-77495D02*
D03*
Y-76690D02*
D03*
Y-75885D02*
D03*
X-44750Y-53525D02*
D03*
X-49950Y-43600D02*
D03*
X-50050Y-45700D02*
D03*
X-48330Y-69607D02*
D03*
X-52805Y-68855D02*
D03*
X-47561Y-82442D02*
D03*
X-48271Y-73935D02*
D03*
X-54430Y-68704D02*
D03*
X-53718Y-55730D02*
D03*
X-60272Y-41777D02*
D03*
X-52783Y-42705D02*
D03*
X-63545Y-64686D02*
D03*
X-61400Y-65050D02*
D03*
X-65973Y-70560D02*
D03*
X-67175Y-54125D02*
D03*
X-74775Y-69619D02*
D03*
X-65025Y-107450D02*
D03*
X-44852Y-59303D02*
D03*
X-63750Y-61200D02*
D03*
X-73625Y-60125D02*
D03*
X-77680Y-41670D02*
D03*
X-65025Y-105150D02*
D03*
X-13775Y-60700D02*
D03*
X-45750Y-59275D02*
D03*
X-13425Y-73175D02*
D03*
X-64420Y-54625D02*
D03*
Y-60425D02*
D03*
X-59769Y-81075D02*
D03*
X-65725Y-84489D02*
D03*
X-63575Y-83594D02*
D03*
Y-73339D02*
D03*
X-56800Y-56250D02*
D03*
X-57078Y-57753D02*
D03*
X-60806Y-53943D02*
D03*
X-60200Y-52750D02*
D03*
X-50855Y-44522D02*
D03*
X-54250Y-67147D02*
D03*
X-54725Y-66625D02*
D03*
X-48975Y-67147D02*
D03*
X-52827Y-68008D02*
D03*
X-45025Y-46702D02*
D03*
X-44202Y-54234D02*
D03*
X-48263Y-57644D02*
D03*
X-46311Y-56250D02*
D03*
X-45275Y-57275D02*
D03*
X-46180Y-63850D02*
D03*
X-56950Y-69422D02*
D03*
X-56368Y-68697D02*
D03*
X-53925Y-70102D02*
D03*
X-53169D02*
D03*
X-57060Y-54416D02*
D03*
X-49934Y-68178D02*
D03*
X-52151Y-65581D02*
D03*
X-50750Y-65325D02*
D03*
X-60125Y-42775D02*
D03*
X-63575Y-71475D02*
D03*
X-50855Y-46702D02*
D03*
X-60350Y-57250D02*
D03*
Y-54650D02*
D03*
X-61975Y-53175D02*
D03*
X-61950Y-57550D02*
D03*
X-53796Y-54565D02*
D03*
X-48100Y-68178D02*
D03*
X-46650Y-66625D02*
D03*
X-57436Y-65581D02*
D03*
X-44567Y-73842D02*
D03*
X-44003Y-47594D02*
D03*
X-45323Y-45198D02*
D03*
X-23280Y-42875D02*
D03*
X-32975Y-42500D02*
D03*
X-29900Y-41475D02*
D03*
X-53775Y-45750D02*
D03*
X-54300Y-46250D02*
D03*
X-87950Y-16875D02*
D03*
X-77731Y-28981D02*
D03*
X-75569Y-46753D02*
D03*
X-76850D02*
D03*
X-69303Y-56603D02*
D03*
X-40700Y-33800D02*
D03*
X-54275Y-53750D02*
D03*
X-42900Y-62025D02*
D03*
X-41127Y-63128D02*
D03*
X-83708Y-82550D02*
D03*
X-28275Y-22675D02*
D03*
X-16637Y-102713D02*
D03*
X-13175Y-106142D02*
D03*
X-8200Y-100450D02*
D03*
X-13875Y-106142D02*
D03*
X-8200Y-99750D02*
D03*
X-6400Y-99050D02*
D03*
Y-99750D02*
D03*
X-16935Y-106142D02*
D03*
X-16235D02*
D03*
X-59961Y-3142D02*
D03*
X-64493Y-12642D02*
D03*
X-52100Y-8428D02*
D03*
X-64705Y-6800D02*
D03*
X-65041Y-4413D02*
D03*
X-68875Y-11275D02*
D03*
X-67114Y-2919D02*
D03*
X-72402Y-4687D02*
D03*
X-62600Y-9900D02*
D03*
X-61325Y-126100D02*
D03*
X-65475Y-1650D02*
D03*
X-56600Y-37400D02*
D03*
X-17307Y-54362D02*
D03*
X-26009Y-55957D02*
D03*
X-24850Y-66575D02*
D03*
X-25800Y-66200D02*
D03*
X-44300Y-72800D02*
D03*
X-28015Y-69663D02*
D03*
X-35350Y-69775D02*
D03*
X-37450Y-69650D02*
D03*
X-58700Y-47950D02*
D03*
X-58771Y-47200D02*
D03*
X-57005Y-48250D02*
D03*
X-48618Y-34197D02*
D03*
X-51300Y-31508D02*
D03*
X-43765Y-33165D02*
D03*
X-53475Y-36125D02*
D03*
X-38748Y-102900D02*
D03*
X-36248Y-103000D02*
D03*
X-29600Y-119200D02*
D03*
Y-106500D02*
D03*
X-59700D02*
D03*
X-1800Y-12000D02*
D03*
X-1800Y-7250D02*
D03*
X-58750Y-1018D02*
D03*
X-34000Y-1000D02*
D03*
X-10000Y-1250D02*
D03*
X-5000Y-1000D02*
D03*
X-72000D02*
D03*
X-27000D02*
D03*
X-22000D02*
D03*
X-23000D02*
D03*
X-37000D02*
D03*
X-43051Y-1189D02*
D03*
X-40000Y-1000D02*
D03*
X-54982Y-979D02*
D03*
X-54172Y-992D02*
D03*
X-73000Y-1000D02*
D03*
X-76000D02*
D03*
X-85000D02*
D03*
X-79000D02*
D03*
X-82000D02*
D03*
X-1000Y-129000D02*
D03*
Y-127000D02*
D03*
Y-125000D02*
D03*
Y-123000D02*
D03*
Y-121000D02*
D03*
Y-119000D02*
D03*
Y-117000D02*
D03*
Y-115000D02*
D03*
Y-113000D02*
D03*
Y-111000D02*
D03*
Y-109000D02*
D03*
Y-107000D02*
D03*
Y-105000D02*
D03*
Y-103000D02*
D03*
Y-101000D02*
D03*
Y-99000D02*
D03*
Y-97000D02*
D03*
Y-95000D02*
D03*
Y-93000D02*
D03*
Y-91000D02*
D03*
Y-89000D02*
D03*
Y-87000D02*
D03*
Y-85000D02*
D03*
Y-83000D02*
D03*
Y-81000D02*
D03*
Y-79000D02*
D03*
Y-77000D02*
D03*
Y-75000D02*
D03*
Y-73000D02*
D03*
Y-71000D02*
D03*
Y-69000D02*
D03*
Y-67000D02*
D03*
Y-65000D02*
D03*
Y-63000D02*
D03*
Y-61000D02*
D03*
Y-59000D02*
D03*
Y-57000D02*
D03*
Y-55000D02*
D03*
Y-53000D02*
D03*
Y-51000D02*
D03*
Y-49000D02*
D03*
Y-47000D02*
D03*
Y-45000D02*
D03*
Y-43000D02*
D03*
Y-41000D02*
D03*
Y-39000D02*
D03*
Y-37000D02*
D03*
Y-35000D02*
D03*
Y-33000D02*
D03*
Y-31000D02*
D03*
Y-29000D02*
D03*
Y-13000D02*
D03*
Y-15000D02*
D03*
Y-17000D02*
D03*
Y-19000D02*
D03*
Y-21000D02*
D03*
Y-23000D02*
D03*
Y-25000D02*
D03*
Y-27000D02*
D03*
Y-5000D02*
D03*
X-59000Y-134000D02*
D03*
X-5000D02*
D03*
X-7000D02*
D03*
X-9000D02*
D03*
X-11000D02*
D03*
X-33000D02*
D03*
X-31000D02*
D03*
X-29000D02*
D03*
X-27000D02*
D03*
X-25000D02*
D03*
X-23000D02*
D03*
X-21000D02*
D03*
X-19000D02*
D03*
X-17000D02*
D03*
X-15000D02*
D03*
X-13000D02*
D03*
X-35000D02*
D03*
X-37000D02*
D03*
X-39000D02*
D03*
X-41000D02*
D03*
X-43000D02*
D03*
X-45000D02*
D03*
X-47000D02*
D03*
X-49000D02*
D03*
X-51000D02*
D03*
X-53000D02*
D03*
X-55000D02*
D03*
X-57000D02*
D03*
X-85000D02*
D03*
X-83000D02*
D03*
X-81000D02*
D03*
X-79000D02*
D03*
X-77000D02*
D03*
X-75000D02*
D03*
X-73000D02*
D03*
X-71000D02*
D03*
X-69000D02*
D03*
X-67000D02*
D03*
X-65000D02*
D03*
X-63000D02*
D03*
X-89000Y-127000D02*
D03*
Y-129000D02*
D03*
Y-117000D02*
D03*
Y-115000D02*
D03*
Y-113000D02*
D03*
Y-125000D02*
D03*
Y-123000D02*
D03*
Y-121000D02*
D03*
Y-119000D02*
D03*
Y-103000D02*
D03*
Y-101000D02*
D03*
Y-99000D02*
D03*
Y-111000D02*
D03*
Y-109000D02*
D03*
Y-107000D02*
D03*
Y-105000D02*
D03*
Y-89000D02*
D03*
Y-87000D02*
D03*
Y-85000D02*
D03*
Y-97000D02*
D03*
Y-95000D02*
D03*
Y-91000D02*
D03*
Y-75000D02*
D03*
Y-73000D02*
D03*
Y-71000D02*
D03*
Y-83000D02*
D03*
Y-81000D02*
D03*
Y-79000D02*
D03*
Y-77000D02*
D03*
Y-63000D02*
D03*
Y-67000D02*
D03*
Y-69000D02*
D03*
Y-55000D02*
D03*
Y-57000D02*
D03*
Y-59000D02*
D03*
Y-61000D02*
D03*
Y-47000D02*
D03*
Y-49000D02*
D03*
Y-51000D02*
D03*
Y-53000D02*
D03*
Y-39000D02*
D03*
Y-41000D02*
D03*
Y-43000D02*
D03*
Y-45000D02*
D03*
Y-31000D02*
D03*
Y-33000D02*
D03*
Y-35000D02*
D03*
Y-37000D02*
D03*
Y-29000D02*
D03*
Y-27000D02*
D03*
Y-25000D02*
D03*
Y-23000D02*
D03*
Y-21000D02*
D03*
Y-19000D02*
D03*
Y-17000D02*
D03*
Y-15000D02*
D03*
Y-13000D02*
D03*
Y-11000D02*
D03*
Y-9000D02*
D03*
Y-7000D02*
D03*
Y-5000D02*
D03*
X-14925Y-80800D02*
D03*
X-23400Y-104575D02*
D03*
X-50825Y-68075D02*
D03*
X-56303Y-62403D02*
D03*
X-33075Y-43250D02*
D03*
X-26825Y-87623D02*
D03*
X-2025Y-95300D02*
D03*
X-4475Y-95675D02*
D03*
X-17001Y-14726D02*
D03*
X-9450Y-105025D02*
D03*
X-35675Y-13825D02*
D03*
X-33050Y-13775D02*
D03*
X-69225Y-112300D02*
D03*
X-69175Y-110925D02*
D03*
X-70300Y-113050D02*
D03*
X-1925Y-100425D02*
D03*
X-9425Y-99250D02*
D03*
X-34000Y-5600D02*
D03*
X-16585Y-114665D02*
D03*
X-12900Y-113025D02*
D03*
X-15850Y-129225D02*
D03*
X-20850Y-105825D02*
D03*
X-12000Y-94825D02*
D03*
X-5325Y-93700D02*
D03*
X-57875Y-51225D02*
D03*
X-3425Y-95625D02*
D03*
X-41752Y-62178D02*
D03*
X-70653Y-51753D02*
D03*
X-35750Y-89375D02*
D03*
X-41400Y-88525D02*
D03*
X-41375Y-89825D02*
D03*
X-40800Y-87350D02*
D03*
X-70653Y-59628D02*
D03*
X-57377Y-102900D02*
D03*
X-51248D02*
D03*
X-43748D02*
D03*
X-41248D02*
D03*
X-53678D02*
D03*
X-55377D02*
D03*
X-73705Y-26430D02*
D03*
X-44400Y-92700D02*
D03*
X-12075Y-87200D02*
D03*
X-79225Y-89700D02*
D03*
X-26825Y-91048D02*
D03*
X-13425Y-87925D02*
D03*
X-13800Y-86575D02*
D03*
X-11305Y-105850D02*
D03*
X-58957Y-11680D02*
D03*
X-82975Y-77200D02*
D03*
X-83925Y-116050D02*
D03*
X-80875Y-117350D02*
D03*
X-80900Y-116050D02*
D03*
X-69625Y-106075D02*
D03*
X-77664Y-110950D02*
D03*
X-75925Y-101850D02*
D03*
X-77025Y-101875D02*
D03*
X-82025Y-104374D02*
D03*
X-75400Y-111025D02*
D03*
X-77900Y-116150D02*
D03*
X-86900D02*
D03*
X-83925Y-117350D02*
D03*
X-70050Y-116125D02*
D03*
Y-117500D02*
D03*
X-67050D02*
D03*
X-67075Y-116200D02*
D03*
X-87300Y-29700D02*
D03*
X-56032Y-4530D02*
D03*
X-29300Y-57225D02*
D03*
X-29925Y-60525D02*
D03*
X-27475Y-60200D02*
D03*
X-13150Y-91625D02*
D03*
X-2825Y-97025D02*
D03*
X-2000Y-96250D02*
D03*
X-22900Y-4650D02*
D03*
X-73975Y-114875D02*
D03*
X-47332Y-11693D02*
D03*
Y-14711D02*
D03*
X-10850Y-92400D02*
D03*
X-20050Y-21925D02*
D03*
X-20875Y-21000D02*
D03*
X-49360Y-58365D02*
D03*
X-50250Y-59275D02*
D03*
X-48950Y-61950D02*
D03*
X-46850Y-65350D02*
D03*
X-37227Y-45227D02*
D03*
X-35827Y-48327D02*
D03*
X-37227Y-46252D02*
D03*
X-39702Y-27576D02*
D03*
X-63800Y-59075D02*
D03*
X-63028Y-50727D02*
D03*
X-41750Y-59300D02*
D03*
X-37750Y-41500D02*
D03*
X-32875Y-69775D02*
D03*
X-33375Y-37300D02*
D03*
X-26825Y-86473D02*
D03*
Y-83023D02*
D03*
Y-88773D02*
D03*
X-42250Y-38075D02*
D03*
X-46775Y-36900D02*
D03*
X-56850Y-50750D02*
D03*
X-37752Y-61978D02*
D03*
X-36752Y-62403D02*
D03*
X-38750Y-40875D02*
D03*
X-24325Y-47475D02*
D03*
X-41250Y-38075D02*
D03*
X-39250D02*
D03*
X-39750Y-37075D02*
D03*
X-36925Y-70375D02*
D03*
X-38550Y-81700D02*
D03*
X-42549Y-81191D02*
D03*
X-38250Y-38075D02*
D03*
X-12425Y-96625D02*
D03*
X-11900Y-96100D02*
D03*
X-6500Y-92200D02*
D03*
X-7925Y-91825D02*
D03*
X-72950Y-58425D02*
D03*
X-76375Y-31700D02*
D03*
X-16350Y-93275D02*
D03*
X-37477Y-51753D02*
D03*
X-78000Y-90225D02*
D03*
X-51182Y-12105D02*
D03*
X-26009Y-30166D02*
D03*
X-24734Y-30725D02*
D03*
X-29200Y-13200D02*
D03*
X-54300Y-44250D02*
D03*
X-53775Y-43750D02*
D03*
X-22400Y-8950D02*
D03*
X-60175Y-24550D02*
D03*
X-57025Y-41750D02*
D03*
X-60125Y-51450D02*
D03*
X-30100Y-69525D02*
D03*
X-31025Y-61300D02*
D03*
X-33050Y-63100D02*
D03*
X-29300Y-61875D02*
D03*
X-16275Y-76200D02*
D03*
X-22450Y-41275D02*
D03*
X-76250Y-23825D02*
D03*
X-32050Y-36125D02*
D03*
X-34552Y-35552D02*
D03*
X-79475Y-41525D02*
D03*
X-76375Y-44450D02*
D03*
X-23800Y-46875D02*
D03*
X-33425Y-96925D02*
D03*
X-71275Y-104680D02*
D03*
X-46250Y-34950D02*
D03*
X-21725Y-40550D02*
D03*
X-37625Y-63100D02*
D03*
X-66425Y-53950D02*
D03*
X-40750Y-37050D02*
D03*
X-16875Y-45775D02*
D03*
X-15125Y-45125D02*
D03*
X-21750Y-43100D02*
D03*
X-31875Y-29950D02*
D03*
X-41725Y-66800D02*
D03*
X-42875Y-66800D02*
D03*
X-74675Y-5200D02*
D03*
X-32050Y-13000D02*
D03*
X-37325Y-90250D02*
D03*
X-59800Y-111150D02*
D03*
X-82050Y-29725D02*
D03*
X-69275Y-28100D02*
D03*
X-29650Y-22675D02*
D03*
X-31875Y-26375D02*
D03*
X-33475Y-26375D02*
D03*
X-30275Y-26368D02*
D03*
X-70400Y-103000D02*
D03*
Y-101050D02*
D03*
X-69425Y-102025D02*
D03*
X-76600Y-104700D02*
D03*
X-76625Y-114300D02*
D03*
X-74025Y-101500D02*
D03*
X-8425Y-92525D02*
D03*
X-7425D02*
D03*
X-76600Y-110863D02*
D03*
X-79125Y-101075D02*
D03*
X-70100Y-104175D02*
D03*
X-29450Y-8650D02*
D03*
X-29875Y-5075D02*
D03*
X-26725Y-7950D02*
D03*
X-52400Y-32375D02*
D03*
X-78903Y-21347D02*
D03*
X-29925Y-16225D02*
D03*
X-13100Y-20750D02*
D03*
X-20050Y-19450D02*
D03*
X-35125Y-26375D02*
D03*
X-28950Y-26368D02*
D03*
X-27625D02*
D03*
X-26825Y-89923D02*
D03*
X-26819Y-84173D02*
D03*
Y-85323D02*
D03*
X-26825Y-81873D02*
D03*
X-14326Y-100609D02*
D03*
X-85175Y-87600D02*
D03*
X-52832Y-5230D02*
D03*
X-73375Y-2075D02*
D03*
X-84300Y-16950D02*
D03*
X-85775Y-13375D02*
D03*
X-87200Y-12000D02*
D03*
X-58360Y-14354D02*
D03*
X-49107Y-15680D02*
D03*
X-48207D02*
D03*
X-51182Y-14255D02*
D03*
X-51982Y-13555D02*
D03*
Y-12780D02*
D03*
X-47519Y-13711D02*
D03*
Y-12693D02*
D03*
X-5100Y-101150D02*
D03*
X-2950Y-97825D02*
D03*
X-2750Y-94625D02*
D03*
X-1650Y-118075D02*
D03*
X-19645Y-112320D02*
D03*
X-17200Y-98650D02*
D03*
X-51888Y-120493D02*
D03*
X-56250Y-118230D02*
D03*
X-54475Y-115705D02*
D03*
X-53375D02*
D03*
X-33075Y-52750D02*
D03*
X-58225Y-33075D02*
D03*
X-61000Y-35750D02*
D03*
X-52450Y-33975D02*
D03*
X-51300Y-34675D02*
D03*
X-29675Y-47250D02*
D03*
Y-54150D02*
D03*
Y-55250D02*
D03*
X-36250Y-65325D02*
D03*
X-75175Y-117825D02*
D03*
X-73225D02*
D03*
X-74200Y-118800D02*
D03*
X-85075Y-105425D02*
D03*
Y-107375D02*
D03*
X-86050Y-106400D02*
D03*
X-21200Y-8700D02*
D03*
X-22184Y-26368D02*
D03*
X-23459Y-26368D02*
D03*
X-24734D02*
D03*
X-26009Y-26368D02*
D03*
X-32850Y-15600D02*
D03*
X-26675Y-11800D02*
D03*
X-30750Y-19875D02*
D03*
X-21975Y-11800D02*
D03*
X-11950Y-9575D02*
D03*
X-16125Y-20275D02*
D03*
X-6850Y-8750D02*
D03*
Y-10050D02*
D03*
X-3300Y-12150D02*
D03*
X-10325Y-11450D02*
D03*
X-30075Y-1525D02*
D03*
X-24925Y-1500D02*
D03*
X-29175Y-1650D02*
D03*
X-34125Y-2150D02*
D03*
X-10800Y-5675D02*
D03*
X-11200Y-6725D02*
D03*
X-40500Y-1500D02*
D03*
X-18360Y-18422D02*
D03*
X-11100Y-16100D02*
D03*
X-11450Y-12650D02*
D03*
X-4375Y-7025D02*
D03*
X-29600Y-124250D02*
D03*
Y-111250D02*
D03*
X-59750Y-124250D02*
D03*
X-35350Y-77375D02*
D03*
X-39600Y-82475D02*
D03*
X-39575Y-86925D02*
D03*
X-40450Y-90400D02*
D03*
X-34925Y-87525D02*
D03*
X-41100Y-84875D02*
D03*
X-60750Y-59075D02*
D03*
X-30150Y-10525D02*
D03*
X-53982Y-10405D02*
D03*
X-53682Y-4580D02*
D03*
X-54632D02*
D03*
X-53682Y-21780D02*
D03*
X-5325Y-96125D02*
D03*
X-85175Y-89600D02*
D03*
X-87850Y-63450D02*
D03*
X-84625Y-88100D02*
D03*
X-37325Y-85625D02*
D03*
Y-81175D02*
D03*
X-46248Y-106770D02*
D03*
X-60950Y-116050D02*
D03*
X-45350Y-36900D02*
D03*
X-18814Y-14414D02*
D03*
X-19325Y-14925D02*
D03*
X-14250Y-18350D02*
D03*
X-87850Y-21700D02*
D03*
X-31800Y-50750D02*
D03*
X-78659Y-26430D02*
D03*
X-73705Y-28970D02*
D03*
X-78659Y-39130D02*
D03*
Y-44210D02*
D03*
Y-51830D02*
D03*
X-73708Y-41684D02*
D03*
X-57003Y-44752D02*
D03*
X-32875Y-58750D02*
D03*
X-78000Y-77675D02*
D03*
X-73425Y-78700D02*
D03*
X-72450Y-79075D02*
D03*
X-83775Y-28350D02*
D03*
X-82875Y-87025D02*
D03*
X-55627Y-89525D02*
D03*
X-54400Y-90650D02*
D03*
X-84433Y-83600D02*
D03*
X-85100Y-84100D02*
D03*
Y-83100D02*
D03*
X-84433Y-84600D02*
D03*
X-70800Y-46925D02*
D03*
X-57763Y-93975D02*
D03*
X-83200Y-90150D02*
D03*
X-24594Y-85600D02*
D03*
X-86775Y-59075D02*
D03*
X-53907Y-7780D02*
D03*
X-79250Y-86200D02*
D03*
X-77675Y-65625D02*
D03*
X-77176Y-62199D02*
D03*
X-63250Y-40100D02*
D03*
X-55850Y-115600D02*
D03*
X-52250Y-115275D02*
D03*
X-65025Y-108600D02*
D03*
Y-106300D02*
D03*
Y-104000D02*
D03*
X-22225Y-94075D02*
D03*
X-26025D02*
D03*
X-35125Y-29750D02*
D03*
X-24575Y-75975D02*
D03*
Y-73425D02*
D03*
X-79350Y-79200D02*
D03*
X-72125Y-54325D02*
D03*
X-76600Y-64425D02*
D03*
X-27625Y-29625D02*
D03*
X-28950D02*
D03*
X-35325Y-10100D02*
D03*
X-36250Y-32000D02*
D03*
X-23459Y-31500D02*
D03*
X-33475Y-29825D02*
D03*
X-29150Y-53150D02*
D03*
X-31250Y-37375D02*
D03*
X-58250Y-44275D02*
D03*
X-17700Y-69650D02*
D03*
X-65875Y-39050D02*
D03*
Y-54475D02*
D03*
X-27276Y-71150D02*
D03*
X-32900Y-88025D02*
D03*
X-62535Y-49575D02*
D03*
X-33000Y-56750D02*
D03*
X-2825D02*
D03*
X-2225Y-54475D02*
D03*
X-29575Y-34400D02*
D03*
X-38200Y-47575D02*
D03*
X-44750Y-35550D02*
D03*
X-25300Y-60184D02*
D03*
X-22725Y-34461D02*
D03*
X-18150Y-51850D02*
D03*
X-51800Y-122450D02*
D03*
X-44625Y-37975D02*
D03*
X-83350Y-100975D02*
D03*
X-44775Y-82150D02*
D03*
X-24700Y-4425D02*
D03*
X-39100Y-30250D02*
D03*
X-76150Y-27700D02*
D03*
X-81550Y-44100D02*
D03*
X-78661Y-36587D02*
D03*
X-65050Y-48475D02*
D03*
X-65025Y-109750D02*
D03*
X-71950Y-112125D02*
D03*
X-68295Y-105150D02*
D03*
X-68875Y-104000D02*
D03*
X-66800Y-112925D02*
D03*
X-81725Y-112525D02*
D03*
X-68525Y-106775D02*
D03*
X-78450Y-105625D02*
D03*
X-82525Y-110525D02*
D03*
X-82550Y-109225D02*
D03*
X-55550Y-92830D02*
D03*
X-12100Y-93725D02*
D03*
X-81186Y-26411D02*
D03*
X-16861Y-94586D02*
D03*
X-82025Y-106400D02*
D03*
X-18025Y-10500D02*
D03*
X-19775Y-6800D02*
D03*
X-22850Y-6775D02*
D03*
X-19075Y-19250D02*
D03*
X-19501Y-11951D02*
D03*
X-54632Y-21780D02*
D03*
X-79600Y-109275D02*
D03*
X-78850Y-110375D02*
D03*
X-85675Y-111700D02*
D03*
X-82050Y-107950D02*
D03*
X-25275Y-10050D02*
D03*
X-14300Y-3275D02*
D03*
X-55782Y-22005D02*
D03*
X-42530Y-25675D02*
D03*
X-58800Y-84475D02*
D03*
X-57275Y-88675D02*
D03*
X-83850Y-21725D02*
D03*
X-33525Y-34950D02*
D03*
X-13425Y-98075D02*
D03*
X-12225Y-97475D02*
D03*
X-68425Y-109750D02*
D03*
X-69425Y-108650D02*
D03*
X-70525Y-108650D02*
D03*
X-73100Y-108650D02*
D03*
X-71075Y-111000D02*
D03*
X-57175Y-84475D02*
D03*
X-49250Y-40950D02*
D03*
X-12126Y-102205D02*
D03*
X-14300Y-98050D02*
D03*
X-51907Y-20805D02*
D03*
X-58307Y-13530D02*
D03*
X-57559Y-14430D02*
D03*
Y-11930D02*
D03*
X-53232Y-16105D02*
D03*
X-52757Y-17205D02*
D03*
X-81250Y-21975D02*
D03*
X-13950Y-10500D02*
D03*
X-17348Y-7442D02*
D03*
X-38300Y-25350D02*
D03*
X-64825Y-23237D02*
D03*
X-67100Y-19425D02*
D03*
X-64825Y-22575D02*
D03*
X-64550Y-17750D02*
D03*
X-65275D02*
D03*
X-66000D02*
D03*
X-65275Y-16800D02*
D03*
X-64550D02*
D03*
X-73467Y-23887D02*
D03*
Y-21347D02*
D03*
X-66625Y-21475D02*
D03*
X-64825Y-23900D02*
D03*
X-65325Y-27050D02*
D03*
X-76150Y-10169D02*
D03*
X-70850Y-5525D02*
D03*
X-76425Y-15525D02*
D03*
X-72275Y-17100D02*
D03*
X-85725Y-41700D02*
D03*
X-80525Y-36587D02*
D03*
X-82438Y-56600D02*
D03*
X-64225Y-51450D02*
D03*
X-54200Y-42250D02*
D03*
X-59350Y-44250D02*
D03*
X-36515Y-15568D02*
D03*
X-39690D02*
D03*
X-44770D02*
D03*
X-40750Y-26450D02*
D03*
X-42230Y-23969D02*
D03*
X-43500D02*
D03*
X-46040D02*
D03*
X-44770D02*
D03*
X-40960Y-19893D02*
D03*
X-38368Y-29053D02*
D03*
X-37150Y-19893D02*
D03*
X-35880D02*
D03*
X-34610D02*
D03*
X-39690D02*
D03*
X-36477Y-23929D02*
D03*
X-23459Y-30014D02*
D03*
X-82422Y-50574D02*
D03*
Y-49848D02*
D03*
X-82425Y-51350D02*
D03*
X-51111Y-37966D02*
D03*
X-64356Y-2665D02*
D03*
X-26975Y-50100D02*
D03*
X-35925Y-52250D02*
D03*
X-29775Y-43750D02*
D03*
X-49084Y-5747D02*
D03*
X-29675Y-4075D02*
D03*
X-49350Y-10400D02*
D03*
X-48750Y-10709D02*
D03*
X-45703Y-6978D02*
D03*
X-27329Y-32600D02*
D03*
X-33419D02*
D03*
X-26200Y-42875D02*
D03*
X-27250Y-65000D02*
D03*
Y-66600D02*
D03*
X-28650Y-65000D02*
D03*
X-30050Y-66600D02*
D03*
Y-65000D02*
D03*
X-28650Y-66600D02*
D03*
X-56200Y-84475D02*
D03*
X-59375Y-88562D02*
D03*
X-87274Y-77600D02*
D03*
X-84034Y-73353D02*
D03*
X-83042Y-73908D02*
D03*
Y-75000D02*
D03*
X-83981Y-74596D02*
D03*
X-84275Y-76600D02*
D03*
X-57250Y-42775D02*
D03*
X-44450Y-62150D02*
D03*
X-45750Y-66400D02*
D03*
X-56894Y-40653D02*
D03*
X-35950Y-56264D02*
D03*
Y-58250D02*
D03*
Y-57250D02*
D03*
Y-50975D02*
D03*
Y-53264D02*
D03*
X-38400Y-54775D02*
D03*
X-36325Y-54250D02*
D03*
X-38710Y-52341D02*
D03*
X-36675Y-42750D02*
D03*
X-35675Y-37125D02*
D03*
X-46967Y-37813D02*
D03*
X-47750Y-38150D02*
D03*
X-45750D02*
D03*
X-24450Y-35023D02*
D03*
X-23825Y-37462D02*
D03*
X-23300Y-38356D02*
D03*
X-35825Y-42800D02*
D03*
X-35425Y-39700D02*
D03*
X-40250Y-40750D02*
D03*
X-48250Y-40650D02*
D03*
X-46750D02*
D03*
X-45250D02*
D03*
X-43750D02*
D03*
X-45250Y-43302D02*
D03*
X-35925Y-43750D02*
D03*
X-35952Y-45752D02*
D03*
X-35950Y-44750D02*
D03*
X-41750Y-43302D02*
D03*
X-41725Y-45125D02*
D03*
X-42725Y-45750D02*
D03*
X-43776Y-45173D02*
D03*
X-45025Y-47575D02*
D03*
X-54300Y-49750D02*
D03*
Y-48750D02*
D03*
X-54105Y-47110D02*
D03*
X-53683Y-48121D02*
D03*
X-50794Y-52000D02*
D03*
Y-50513D02*
D03*
Y-49550D02*
D03*
X-50081Y-49050D02*
D03*
X-49587Y-46934D02*
D03*
X-53775Y-52000D02*
D03*
X-70600Y-84775D02*
D03*
X-70475Y-77755D02*
D03*
X-50750Y-40950D02*
D03*
X-42750Y-44125D02*
D03*
X-44075Y-43450D02*
D03*
X-46750Y-43700D02*
D03*
X-48250Y-43450D02*
D03*
X-37100Y-36750D02*
D03*
X-41750Y-40650D02*
D03*
X-42800Y-40750D02*
D03*
X-55450Y-66100D02*
D03*
X-44800Y-66800D02*
D03*
D117*
X-54025Y-72050D02*
D03*
X-57050Y-74500D02*
D03*
X-54050Y-75025D02*
D03*
X-54647Y-74225D02*
D03*
X-57050Y-71625D02*
D03*
X-50139Y-71990D02*
D03*
X-50794Y-73575D02*
D03*
X-53197Y-74875D02*
D03*
Y-74229D02*
D03*
X-54575Y-72925D02*
D03*
X-56450Y-75150D02*
D03*
X-51397Y-71625D02*
D03*
Y-72925D02*
D03*
X-56447Y-72275D02*
D03*
Y-73575D02*
D03*
X-26850Y-20075D02*
D03*
X-29225Y-18775D02*
D03*
X-24900Y-17475D02*
D03*
X-26850Y-15525D02*
D03*
X-24900Y-15525D02*
D03*
X-22950Y-18125D02*
D03*
X-24250Y-17475D02*
D03*
X-25550Y-16825D02*
D03*
X-26200D02*
D03*
X-22950Y-18775D02*
D03*
X-24900Y-16175D02*
D03*
X-25400Y-13525D02*
D03*
X-23600Y-15525D02*
D03*
X-24775Y-21525D02*
D03*
X-22950Y-15525D02*
D03*
X-53197Y-77475D02*
D03*
X-51397Y-70975D02*
D03*
X-24900Y-19425D02*
D03*
X-23250Y-13300D02*
D03*
X-23425Y-14000D02*
D03*
X-54647Y-78775D02*
D03*
X-53197Y-79425D02*
D03*
X-54647Y-76825D02*
D03*
X-51378Y-80110D02*
D03*
X-57408Y-80769D02*
D03*
X-87274Y-67600D02*
D03*
Y-69600D02*
D03*
Y-71600D02*
D03*
Y-72600D02*
D03*
Y-73600D02*
D03*
Y-74600D02*
D03*
Y-75600D02*
D03*
X-85026Y-77100D02*
D03*
Y-76100D02*
D03*
Y-75100D02*
D03*
Y-74100D02*
D03*
Y-73100D02*
D03*
Y-72100D02*
D03*
Y-71100D02*
D03*
Y-70100D02*
D03*
D118*
X-77000Y-108275D02*
D03*
Y-107075D02*
D03*
X-75800Y-108275D02*
D03*
Y-107075D02*
D03*
D119*
X-2350Y-2350D02*
D03*
Y-132650D02*
D03*
X-87650D02*
D03*
Y-2350D02*
D03*
D120*
X-79350Y-10750D02*
D03*
D121*
X-74450Y-7700D02*
D03*
D122*
X-9675Y-95875D02*
D03*
X-7675D02*
D03*
X-9675Y-96875D02*
D03*
Y-94875D02*
D03*
X-7675Y-96875D02*
D03*
Y-94875D02*
D03*
X-8675Y-95875D02*
D03*
Y-96875D02*
D03*
Y-94875D02*
D03*
M02*
