G04 Layer_Physical_Order=5*
G04 Layer_Color=36540*
%FSLAX43Y43*%
%MOMM*%
G71*
G01*
G75*
%ADD10C,0.175*%
%ADD77C,0.180*%
%ADD78C,0.150*%
%ADD79C,0.200*%
%ADD80C,0.185*%
%ADD81C,0.165*%
%ADD83C,0.300*%
%ADD89C,1.700*%
%ADD98C,0.550*%
%ADD99C,0.400*%
%ADD123C,0.155*%
D10*
X-64090Y-61540D02*
X-63750Y-61200D01*
X-64090Y-106515D02*
Y-61540D01*
X-67175Y-54125D02*
X-66750Y-54550D01*
X-65025Y-107450D02*
X-64090Y-106515D01*
X-74550Y-59200D02*
X-73625Y-60125D01*
X-77680Y-41670D02*
X-74550Y-44800D01*
Y-59200D02*
Y-44800D01*
X-13425Y-73175D02*
Y-61050D01*
X-13775Y-60700D02*
X-13425Y-61050D01*
X-65379Y-81254D02*
Y-54971D01*
X-66300Y-82175D02*
X-65379Y-81254D01*
X-66300Y-92124D02*
Y-82175D01*
X-65875Y-54475D02*
X-65379Y-54971D01*
X-65725Y-105600D02*
Y-84489D01*
X-63000Y-46559D02*
X-62359Y-47200D01*
X-58771D01*
X-63000Y-40575D02*
X-61732Y-39307D01*
X-63000Y-46559D02*
Y-40575D01*
X-61732Y-39307D02*
Y-23957D01*
X-23280Y-44441D02*
Y-42875D01*
Y-44441D02*
X-22607Y-45113D01*
Y-79306D02*
Y-45113D01*
Y-79306D02*
X-20859Y-81054D01*
X-19670D01*
X-21750Y-43489D02*
Y-43100D01*
Y-43489D02*
X-21550Y-43689D01*
X-69303Y-56603D02*
Y-35957D01*
X-42900Y-62175D02*
Y-62025D01*
X-41127Y-81327D02*
Y-63128D01*
X-45275Y-85475D02*
X-41127Y-81327D01*
X-27457Y-14208D02*
X-26075Y-12825D01*
X-27457Y-17007D02*
Y-14208D01*
X-29225Y-18775D02*
X-27457Y-17007D01*
X-29042Y-21925D02*
Y-19783D01*
X-29475Y-19350D02*
X-29042Y-19783D01*
X-51182Y-12105D02*
Y-9889D01*
X-52121Y-8950D02*
X-51182Y-9889D01*
X-54131Y-8950D02*
X-52121D01*
X-56239Y-11058D02*
X-54131Y-8950D01*
X-63231Y-11058D02*
X-56239D01*
X-64120Y-10169D02*
X-63231Y-11058D01*
X-76150Y-10169D02*
X-64120D01*
X-54980Y-17205D02*
X-52757D01*
X-61732Y-23957D02*
X-54980Y-17205D01*
X-88250Y-57600D02*
X-86775Y-59075D01*
X-35959Y-71176D02*
Y-66045D01*
Y-71176D02*
X-34225Y-72910D01*
X-37900Y-103800D02*
X-36150Y-102050D01*
X-40347Y-103800D02*
X-37900D01*
X-41248Y-102900D02*
X-40347Y-103800D01*
X-36150Y-102050D02*
Y-97725D01*
X-55377Y-102900D02*
X-54103Y-104175D01*
X-53678Y-102900D02*
X-52978Y-103600D01*
X-43825Y-102173D02*
Y-96250D01*
X-45827Y-104175D02*
X-43825Y-102173D01*
X-54103Y-104175D02*
X-45827D01*
X-52978Y-103600D02*
X-47750D01*
X-40600Y-40107D02*
Y-37925D01*
X-41400Y-37125D02*
X-40600Y-37925D01*
X-41400Y-37125D02*
Y-36700D01*
X-41100Y-36400D01*
X-40425D01*
X-39750Y-37075D01*
X-4430Y-46510D02*
X-1650Y-49290D01*
Y-79290D02*
Y-49290D01*
X-4430Y-82070D02*
X-1650Y-79290D01*
X-3555Y-80700D02*
X-2325Y-79470D01*
Y-60025D01*
X-5670Y-56680D02*
X-2325Y-60025D01*
X-5670Y-56680D02*
Y-50350D01*
X-88250Y-29175D02*
X-87425Y-28350D01*
X-88250Y-57600D02*
Y-29175D01*
X-87425Y-28350D02*
X-83775D01*
X-17700Y-78025D02*
X-14925Y-80800D01*
X-17700Y-78025D02*
Y-69625D01*
X-45800Y-94484D02*
Y-76800D01*
X-50150Y-98834D02*
X-45800Y-94484D01*
X-34180Y-36830D02*
X-33525Y-36175D01*
X-34180Y-49953D02*
Y-36830D01*
Y-49953D02*
X-33745Y-50388D01*
X-35170Y-50363D02*
X-34735Y-50798D01*
X-35170Y-50363D02*
Y-45530D01*
X-37750Y-46525D02*
X-36964Y-47311D01*
X-31025Y-70508D02*
X-29725Y-71808D01*
Y-80848D02*
Y-71808D01*
Y-80848D02*
X-27037Y-83535D01*
X-31795Y-83656D02*
Y-72555D01*
X-33745Y-70605D02*
X-31795Y-72555D01*
X-33745Y-70605D02*
Y-50388D01*
X-32875Y-70549D02*
Y-69775D01*
Y-70549D02*
X-31140Y-72284D01*
X-34735Y-71473D02*
Y-50798D01*
X-32912Y-88012D02*
Y-73296D01*
X-34735Y-71473D02*
X-32912Y-73296D01*
X-34225Y-95800D02*
Y-72910D01*
X-31140Y-82883D02*
Y-72284D01*
X-36150Y-97725D02*
X-34225Y-95800D01*
X-31025Y-70508D02*
Y-61300D01*
X-31140Y-82883D02*
X-26912Y-87110D01*
X-26006D01*
X-27276Y-88175D02*
X-26698D01*
X-31795Y-83656D02*
X-27276Y-88175D01*
X-21903Y-91214D02*
X-19670D01*
X-26006Y-87110D02*
X-21903Y-91214D01*
X-43450Y-84265D02*
X-38889Y-79705D01*
X-43450Y-94425D02*
Y-84265D01*
X-38889Y-79705D02*
Y-59561D01*
X-38564Y-79839D02*
Y-58529D01*
X-42775Y-84050D02*
X-38564Y-79839D01*
X-42775Y-95200D02*
Y-84050D01*
X-45275Y-91825D02*
Y-85475D01*
Y-91825D02*
X-44400Y-92700D01*
X-47750Y-103600D02*
X-46450Y-102300D01*
Y-97425D01*
X-67575Y-106850D02*
Y-101300D01*
X-68450Y-107725D02*
X-67575Y-106850D01*
X-69600Y-107725D02*
X-68450D01*
X-77300Y-96975D02*
X-70100Y-104175D01*
X-80775Y-96975D02*
X-77300D01*
X-83775Y-93975D02*
X-80775Y-96975D01*
X-77425Y-97310D02*
X-71275Y-103460D01*
X-80940Y-97310D02*
X-77425D01*
X-71275Y-104680D02*
Y-103460D01*
X-84100Y-94150D02*
X-80940Y-97310D01*
X-84100Y-94150D02*
Y-88625D01*
X-83775Y-93975D02*
Y-88100D01*
X-25700Y-21629D02*
X-21139Y-26190D01*
X-25700Y-21629D02*
Y-17925D01*
X-26200Y-17425D02*
X-25700Y-17925D01*
X-37450Y-80004D02*
Y-69650D01*
X-38550Y-81104D02*
X-37450Y-80004D01*
X-38550Y-81700D02*
Y-81104D01*
X-37125Y-62030D02*
Y-57000D01*
Y-62030D02*
X-36752Y-62403D01*
X-37750Y-46525D02*
Y-41500D01*
X-27037Y-83535D02*
X-25090D01*
X-22491Y-86134D01*
X-26698Y-88175D02*
X-26312Y-88561D01*
Y-88563D02*
X-22126Y-92750D01*
X-26312Y-88563D02*
Y-88561D01*
X-24325Y-72250D02*
Y-47475D01*
X-29300Y-61875D02*
Y-57225D01*
X-19775Y-92750D02*
X-15150Y-97375D01*
X-22126Y-92750D02*
X-19775D01*
X-71550Y-47675D02*
X-70800Y-46925D01*
X-71550Y-61625D02*
Y-47675D01*
X-75375Y-65450D02*
X-71550Y-61625D01*
X-75825Y-41375D02*
X-72950Y-44250D01*
Y-58425D02*
Y-44250D01*
X-70653Y-62067D02*
Y-59628D01*
X-38750Y-36275D02*
Y-34050D01*
X-32912Y-88012D02*
X-32900Y-88025D01*
X-70653Y-58697D02*
Y-51753D01*
X-81950Y-83100D02*
X-75375Y-76525D01*
Y-65450D01*
X-81797Y-84100D02*
X-73856Y-76158D01*
Y-65269D02*
X-70653Y-62067D01*
X-73856Y-76158D02*
Y-65269D01*
X-84433Y-84600D02*
X-81600D01*
X-73350Y-76350D01*
Y-68787D01*
X-69825Y-65262D01*
X-71616Y-69500D02*
X-67930Y-65814D01*
X-83200Y-90150D02*
X-81700Y-88650D01*
X-71616Y-75166D02*
Y-69500D01*
X-81700Y-85250D02*
X-71616Y-75166D01*
X-81700Y-88650D02*
Y-85250D01*
X-69825Y-65262D02*
Y-59525D01*
X-70653Y-58697D02*
X-69825Y-59525D01*
X-74775Y-76450D02*
Y-69619D01*
X-81925Y-83600D02*
X-74775Y-76450D01*
X-84433Y-83600D02*
X-81925D01*
X-74510Y-30750D02*
X-69303Y-35957D01*
X-74510Y-30750D02*
Y-24930D01*
X-73467Y-23887D01*
X-21139Y-26190D02*
X-19670D01*
X-26200Y-17425D02*
Y-16825D01*
X-25375Y-19975D02*
X-21700Y-23650D01*
X-19670D01*
X-25375Y-19975D02*
Y-17300D01*
X-25550Y-17125D02*
X-25375Y-17300D01*
X-25550Y-17125D02*
Y-16825D01*
X-67930Y-65814D02*
X-66750Y-64634D01*
Y-54550D01*
X-60200Y-24525D02*
X-60175Y-24550D01*
X-60200Y-38575D02*
Y-24525D01*
Y-38575D02*
X-57025Y-41750D01*
X-27275Y-77950D02*
Y-71150D01*
X-22491Y-86134D02*
X-19670D01*
X-43825Y-96250D02*
X-42775Y-95200D01*
X-46450Y-97425D02*
X-43450Y-94425D01*
X-79475Y-45125D02*
Y-41525D01*
Y-45125D02*
X-78659Y-45942D01*
Y-51830D02*
Y-45942D01*
X-25450Y-75100D02*
X-24575Y-75975D01*
X-25450Y-75100D02*
Y-73375D01*
X-66241Y-66316D02*
Y-55634D01*
X-66425Y-55450D02*
X-66241Y-55634D01*
X-66425Y-55450D02*
Y-53950D01*
X-67125Y-67200D02*
X-66241Y-66316D01*
X-68575Y-67200D02*
X-67125D01*
X-21550Y-61394D02*
Y-43689D01*
Y-61394D02*
X-19670Y-63274D01*
X-37325Y-90250D02*
Y-85625D01*
Y-81175D01*
X-85175Y-87600D02*
X-84900Y-87325D01*
X-84550D01*
X-6970Y-49050D02*
X-5670Y-50350D01*
X-6970Y-84610D02*
X-5775Y-83415D01*
Y-81550D01*
X-4925Y-80700D01*
X-3555D01*
X-84550Y-87325D02*
X-83775Y-88100D01*
X-84625Y-88100D02*
X-84100Y-88625D01*
X-5665Y-45275D02*
X-4430Y-46510D01*
X-13285Y-45275D02*
X-5665D01*
X-19670Y-38890D02*
X-13285Y-45275D01*
X-78659Y-26430D02*
X-75825Y-29264D01*
X-19670Y-58194D02*
X-16050Y-61814D01*
Y-72990D02*
Y-61814D01*
Y-72990D02*
X-6970Y-82070D01*
X-65725Y-105600D02*
X-65025Y-106300D01*
X-75825Y-41375D02*
Y-29264D01*
X-67930Y-93754D02*
X-66300Y-92124D01*
X-65875Y-54475D02*
Y-39050D01*
X-21631Y-83594D02*
X-19670D01*
X-27275Y-77950D02*
X-21631Y-83594D01*
X-25450Y-73375D02*
X-24325Y-72250D01*
X-33525Y-36175D02*
Y-34950D01*
X-15150Y-97375D02*
X-14125D01*
X-13425Y-98075D01*
X-70525Y-108650D02*
X-69600Y-107725D01*
X-40750Y-32050D02*
X-38750Y-34050D01*
X-40750Y-32050D02*
Y-26450D01*
X-86257Y-88518D02*
X-85175Y-89600D01*
X-86257Y-88518D02*
Y-59593D01*
X-86775Y-59075D02*
X-86257Y-59593D01*
X-46180Y-63850D02*
Y-63105D01*
X-45800Y-76800D02*
X-43700Y-74700D01*
Y-62825D01*
X-42900Y-62025D01*
X-35959Y-66045D02*
X-35438Y-65524D01*
X-37720Y-56405D02*
X-37125Y-57000D01*
X-37720Y-51996D02*
X-37477Y-51753D01*
X-35438Y-65524D02*
Y-55883D01*
X-37720Y-56405D02*
Y-51996D01*
X-36964Y-54359D02*
Y-47311D01*
Y-54359D02*
X-36809Y-54515D01*
X-36806D01*
X-35438Y-55883D01*
X-40750Y-37050D02*
X-40038Y-37762D01*
Y-38262D02*
Y-37762D01*
X-35950Y-44750D02*
X-35170Y-45530D01*
X-40826Y-40334D02*
X-40600Y-40107D01*
X-40826Y-41260D02*
Y-40334D01*
X-39965Y-58485D02*
X-38889Y-59561D01*
X-39965Y-58485D02*
Y-42121D01*
X-40826Y-41260D02*
X-39965Y-42121D01*
X-39640Y-57454D02*
X-38564Y-58529D01*
X-39640Y-57454D02*
Y-38660D01*
X-40038Y-38262D02*
X-39640Y-38660D01*
X-41725Y-57273D02*
Y-45125D01*
X-46180Y-63105D02*
X-42750Y-59675D01*
Y-58298D01*
X-41725Y-57273D01*
X-69560Y-99315D02*
X-67575Y-101300D01*
X-69560Y-99315D02*
Y-68185D01*
X-68575Y-67200D01*
D77*
X-62220Y-87830D02*
Y-60833D01*
Y-87830D02*
X-52690Y-97360D01*
X-65035Y-103990D02*
Y-35465D01*
Y-103990D02*
X-65025Y-104000D01*
X-64420Y-104545D02*
Y-54625D01*
X-65025Y-105150D02*
X-64420Y-104545D01*
X-63028Y-96116D02*
Y-50727D01*
X-62220Y-60833D02*
X-61950Y-60563D01*
Y-57550D01*
X-42875Y-64478D02*
X-42353Y-63956D01*
X-62500Y-94800D02*
X-59125Y-98175D01*
X-63028Y-96116D02*
X-60310Y-98834D01*
X-61975Y-51220D02*
X-58705Y-47950D01*
X-61975Y-53175D02*
Y-51220D01*
X-46285Y-93335D02*
Y-67696D01*
X-51325Y-98375D02*
X-46285Y-93335D01*
X-32975Y-42500D02*
X-32410Y-43065D01*
X-23300Y-41703D02*
Y-38356D01*
Y-41703D02*
X-22711Y-42291D01*
Y-43694D02*
Y-42291D01*
Y-43694D02*
X-22280Y-44126D01*
X-23280Y-79906D02*
X-20682Y-82504D01*
X-23280Y-79906D02*
Y-46249D01*
X-24450Y-45079D02*
X-23280Y-46249D01*
X-23825Y-45237D02*
X-22950Y-46112D01*
Y-79734D02*
Y-46112D01*
Y-79734D02*
X-20540Y-82144D01*
X-41725Y-66800D02*
Y-62950D01*
X-28200Y-27050D02*
Y-25807D01*
X-29042Y-24965D02*
X-28200Y-25807D01*
X-29042Y-24965D02*
Y-21925D01*
X-31684Y-17141D02*
X-29475Y-19350D01*
X-31684Y-17141D02*
Y-13366D01*
X-32050Y-13000D02*
X-31684Y-13366D01*
X-32325Y-17308D02*
Y-13550D01*
X-32875Y-13000D02*
X-32325Y-13550D01*
Y-17308D02*
X-29650Y-19983D01*
Y-22675D02*
Y-19983D01*
X-12595Y-73905D02*
Y-59074D01*
X-17307Y-54362D02*
X-12595Y-59074D01*
Y-73905D02*
X-6970Y-79530D01*
X-26009Y-55957D02*
Y-55314D01*
X-26675Y-60732D02*
Y-55435D01*
X-28015Y-62072D02*
X-26675Y-60732D01*
X-28015Y-69663D02*
Y-62072D01*
X-25800Y-66200D02*
X-25210D01*
X-24785Y-65775D01*
Y-48415D01*
X-35350Y-69775D02*
Y-69385D01*
X-35062Y-69098D01*
Y-51088D01*
X-35350Y-71322D02*
Y-69775D01*
X-51325Y-100199D02*
Y-98375D01*
Y-100199D02*
X-50150Y-101374D01*
X-52690Y-98834D02*
Y-97360D01*
X-58495Y-109030D02*
Y-103189D01*
X-60310Y-101374D02*
X-58495Y-103189D01*
X-61575Y-102325D02*
X-58825Y-105075D01*
Y-112625D02*
Y-105075D01*
X-60310Y-101374D02*
X-59125Y-100189D01*
Y-98175D01*
X-61575Y-100099D02*
X-60310Y-98834D01*
X-61575Y-102325D02*
Y-100099D01*
X-32458Y-85415D02*
X-23283Y-94590D01*
X-32458Y-85415D02*
Y-73288D01*
X-34842Y-50228D02*
X-34408Y-50663D01*
X-31950Y-70537D02*
X-30478Y-72009D01*
X-31950Y-70537D02*
Y-51874D01*
X-34408Y-71338D02*
X-32458Y-73288D01*
X-34408Y-71338D02*
Y-50663D01*
X-33425Y-96925D02*
Y-73247D01*
X-35350Y-71322D02*
X-33425Y-73247D01*
X-30478Y-81664D02*
Y-72009D01*
Y-81664D02*
X-26819Y-85323D01*
X-26863Y-87623D02*
X-26825D01*
X-25305Y-60179D02*
X-25300Y-60184D01*
X-23825Y-45237D02*
Y-37462D01*
X-24450Y-45079D02*
Y-35023D01*
X-22280Y-78834D02*
Y-44126D01*
X-32410Y-51414D02*
X-31950Y-51874D01*
X-32410Y-51414D02*
Y-43065D01*
X-36467Y-49683D02*
X-35062Y-51088D01*
X-22041Y-84684D02*
X-17916D01*
X-24852Y-81873D02*
X-22041Y-84684D01*
X-17916D02*
X-13475Y-89125D01*
X-26825Y-81873D02*
X-24852D01*
X-13475Y-89125D02*
X-8075D01*
X-5325Y-91875D01*
X-14892Y-90375D02*
X-9375D01*
X-17683Y-87584D02*
X-14892Y-90375D01*
X-24116Y-87584D02*
X-17683D01*
X-26377Y-85323D02*
X-24116Y-87584D01*
X-26819Y-85323D02*
X-26377D01*
X-26825Y-87623D02*
X-26787D01*
X-10217Y-98500D02*
X-5133D01*
X-10353Y-98170D02*
X-5970D01*
X-11227Y-99510D02*
X-10217Y-98500D01*
X-11363Y-99180D02*
X-10353Y-98170D01*
X-5970D02*
X-3425Y-95625D01*
X-5133Y-98500D02*
X-2883Y-96250D01*
X-12075Y-87200D02*
Y-86750D01*
X-18861Y-79964D02*
X-12075Y-86750D01*
X-21150Y-79964D02*
X-18861D01*
X-14960Y-86390D02*
X-13425Y-87925D01*
X-14960Y-86390D02*
Y-85136D01*
X-13800Y-86575D02*
Y-85829D01*
X-17592Y-82504D02*
X-14960Y-85136D01*
X-20682Y-82504D02*
X-17592D01*
X-2883Y-96250D02*
X-2000D01*
X-9375Y-90375D02*
X-7925Y-91825D01*
X-42875Y-66800D02*
Y-64478D01*
X-39702Y-31898D02*
X-37735Y-33865D01*
Y-40757D02*
Y-33865D01*
X-38575Y-41597D02*
X-37735Y-40757D01*
X-39702Y-31898D02*
Y-27576D01*
X-66350Y-34150D02*
X-65035Y-35465D01*
X-26787Y-87623D02*
X-22061Y-92349D01*
X-15651D01*
X-38575Y-47200D02*
Y-41597D01*
Y-47200D02*
X-38200Y-47575D01*
X-26825Y-89923D02*
X-23198Y-93550D01*
X-15651Y-92349D02*
X-11900Y-96100D01*
X-22280Y-78834D02*
X-21150Y-79964D01*
X-17485Y-82144D02*
X-13800Y-85829D01*
X-20540Y-82144D02*
X-17485D01*
X-21725Y-40550D02*
X-20875Y-41400D01*
Y-51909D02*
Y-41400D01*
Y-51909D02*
X-19670Y-53114D01*
X-5325Y-93700D02*
Y-91875D01*
X-80200Y-59175D02*
X-77176Y-62199D01*
X-80200Y-59175D02*
Y-40672D01*
X-80625Y-62675D02*
X-77675Y-65625D01*
X-80625Y-62675D02*
Y-38556D01*
X-78659Y-36590D01*
X-77600Y-58275D02*
X-76600Y-59275D01*
X-77600Y-58275D02*
Y-45269D01*
X-78659Y-44210D02*
X-77600Y-45269D01*
X-76600Y-64425D02*
Y-59275D01*
X-75725Y-76325D02*
Y-64925D01*
X-78600Y-79200D02*
X-75725Y-76325D01*
X-79350Y-79200D02*
X-78600D01*
X-76250Y-23825D02*
X-75025Y-25050D01*
Y-41175D02*
Y-25050D01*
Y-41175D02*
X-70125Y-46075D01*
X-29375Y-63265D02*
X-28575Y-62465D01*
X-29375Y-68800D02*
Y-63265D01*
X-30100Y-69525D02*
X-29375Y-68800D01*
X-28575Y-62465D02*
Y-55475D01*
X-29150Y-54900D02*
X-28575Y-55475D01*
X-29150Y-54900D02*
Y-53150D01*
X-21205Y-59199D02*
X-19670Y-60734D01*
X-21205Y-59199D02*
Y-42520D01*
X-22450Y-41275D02*
X-21205Y-42520D01*
X-70125Y-57275D02*
Y-46075D01*
Y-57275D02*
X-69206Y-58194D01*
X-80200Y-40672D02*
X-78659Y-39130D01*
X-23800Y-72650D02*
Y-46875D01*
X-6970Y-74450D02*
X-5725Y-73205D01*
Y-71250D01*
X-6350Y-70625D02*
X-5725Y-71250D01*
X-14576Y-50574D02*
X-11350Y-53800D01*
X-19670Y-50574D02*
X-14576D01*
X-19670Y-53114D02*
X-13386D01*
X-12075Y-54425D01*
Y-66805D02*
Y-54425D01*
Y-66805D02*
X-6970Y-71910D01*
X-11350Y-66850D02*
Y-53800D01*
Y-66850D02*
X-7575Y-70625D01*
X-6350D01*
X-75725Y-64925D02*
X-72125Y-61325D01*
Y-54325D01*
X-73705Y-28970D02*
X-68525Y-34150D01*
X-66350D01*
X-14590Y-46510D02*
X-6970D01*
X-19670Y-41430D02*
X-14590Y-46510D01*
X-29575Y-37575D02*
Y-34400D01*
X-24575Y-73425D02*
X-23800Y-72650D01*
X-44775Y-82150D02*
Y-76400D01*
X-42530Y-74155D01*
Y-71021D01*
X-58825Y-112625D02*
X-55850Y-115600D01*
X-58495Y-109030D02*
X-52250Y-115275D01*
X-81250Y-21975D02*
X-80450Y-22775D01*
X-31325Y-10525D02*
X-30150D01*
X-32875Y-12075D02*
X-31325Y-10525D01*
X-32875Y-13000D02*
Y-12075D01*
X-25875Y-28725D02*
X-24734Y-29866D01*
X-26525Y-28725D02*
X-25875D01*
X-24734Y-30725D02*
Y-29866D01*
X-28200Y-27050D02*
X-26525Y-28725D01*
X-29650Y-26525D02*
X-26009Y-30166D01*
X-69206Y-61998D02*
X-67930Y-63274D01*
X-69206Y-61998D02*
Y-58194D01*
X-42530Y-34980D02*
Y-25675D01*
X-29650Y-26525D02*
Y-22675D01*
X-36781Y-31505D02*
X-36477Y-31201D01*
Y-23929D01*
X-36467Y-49683D02*
Y-43442D01*
X-23503Y-30005D02*
X-15855D01*
X-6970Y-38890D01*
X-14652Y-99510D02*
X-11227D01*
X-14515Y-99180D02*
X-11363D01*
X-19572Y-94590D02*
X-14652Y-99510D01*
X-23283Y-94590D02*
X-19572D01*
X-20145Y-93550D02*
X-14515Y-99180D01*
X-23198Y-93550D02*
X-20145D01*
X-42975Y-35425D02*
X-42530Y-34980D01*
X-81550Y-44100D02*
Y-30727D01*
X-80450Y-29627D01*
Y-22775D01*
X-43765Y-33165D02*
X-43750Y-33180D01*
X-29150Y-53150D02*
Y-38000D01*
X-29575Y-37575D02*
X-29150Y-38000D01*
X-26009Y-30166D02*
X-25305Y-30870D01*
X-24975Y-48225D02*
X-24785Y-48415D01*
X-25305Y-60179D02*
Y-30870D01*
X-29163Y-30140D02*
X-28301D01*
X-29353Y-29950D02*
X-29163Y-30140D01*
X-31875Y-29950D02*
X-29353D01*
X-45703Y-8631D02*
X-36452Y-17882D01*
X-45703Y-8631D02*
Y-6978D01*
X-36452Y-21439D02*
Y-17882D01*
Y-21439D02*
X-35918Y-21972D01*
Y-31106D02*
Y-21972D01*
Y-31106D02*
X-34425Y-32600D01*
X-33419D01*
X-26200Y-54960D02*
Y-42875D01*
X-25685Y-54990D02*
Y-32756D01*
X-26675Y-55435D02*
X-26200Y-54960D01*
X-26009Y-55314D02*
X-25685Y-54990D01*
X-28301Y-30140D02*
X-25685Y-32756D01*
X-44115Y-66992D02*
Y-62485D01*
X-44450Y-62150D02*
X-44115Y-62485D01*
X-35675Y-37604D02*
X-34842Y-38436D01*
X-35675Y-37604D02*
Y-37125D01*
X-36350Y-42275D02*
Y-41376D01*
X-36190Y-41216D01*
Y-33010D01*
X-36781Y-32419D02*
X-36190Y-33010D01*
X-36781Y-32419D02*
Y-31505D01*
X-24975Y-48225D02*
Y-31864D01*
X-24734Y-31623D01*
Y-30725D01*
X-36350Y-42275D02*
X-35825Y-42800D01*
X-36467Y-43442D02*
X-35825Y-42800D01*
X-34842Y-50228D02*
Y-38436D01*
X-42975Y-38736D02*
Y-35425D01*
X-43750Y-38784D02*
X-42265Y-40269D01*
X-43750Y-38784D02*
Y-33180D01*
X-42265Y-41832D02*
Y-40269D01*
Y-41832D02*
X-41204Y-42893D01*
Y-41442D02*
X-40874Y-41772D01*
X-41725Y-62950D02*
X-40874Y-62099D01*
Y-41772D01*
X-41204Y-57507D02*
Y-42893D01*
X-42353Y-63956D02*
Y-58656D01*
X-41204Y-57507D01*
X-42975Y-38736D02*
X-41576Y-40135D01*
X-41537D01*
X-41204Y-40468D01*
Y-41442D02*
Y-40468D01*
X-44506Y-67383D02*
X-44115Y-66992D01*
X-45972Y-67383D02*
X-44506D01*
X-46285Y-67696D02*
X-45972Y-67383D01*
D78*
X-62535Y-94765D02*
X-62500Y-94800D01*
X-62535Y-94765D02*
Y-50948D01*
X-62528Y-50942D01*
Y-49582D01*
X-62535Y-49575D02*
X-62528Y-49582D01*
X-39250Y-57100D02*
X-38252Y-58098D01*
X-39250Y-57100D02*
Y-39300D01*
X-19967Y-12417D02*
X-19501Y-11951D01*
X-25667Y-12417D02*
X-19967D01*
X-26075Y-12825D02*
X-25667Y-12417D01*
X-38725Y-102900D02*
Y-82525D01*
X-39050Y-82200D02*
X-38725Y-82525D01*
X-38252Y-62473D02*
Y-58098D01*
Y-62473D02*
X-37625Y-63100D01*
X-39050Y-82200D02*
Y-81162D01*
X-37975Y-80087D01*
Y-63450D01*
X-37625Y-63100D01*
X-38750Y-38800D02*
Y-36275D01*
X-39250Y-39300D02*
X-38750Y-38800D01*
X-85100Y-83100D02*
X-81950D01*
X-85100Y-84100D02*
X-81797D01*
X-5330Y-93695D02*
X-5325Y-93700D01*
X-27442Y-38890D02*
X-26367Y-39965D01*
X-26975Y-50100D02*
Y-42637D01*
X-26367Y-42029D01*
Y-39965D01*
X-37227Y-45227D02*
Y-41677D01*
X-36505Y-40956D01*
Y-33140D01*
X-38062Y-31583D02*
X-36505Y-33140D01*
X-39100Y-30250D02*
X-38062Y-31288D01*
Y-31583D02*
Y-31288D01*
D79*
X-28690Y-50507D02*
X-27442Y-51755D01*
X-28690Y-50507D02*
Y-33931D01*
X-31711Y-30910D02*
X-28690Y-33931D01*
X-33965Y-30910D02*
X-31711D01*
X-35125Y-29750D02*
X-33965Y-30910D01*
X-49084Y-5747D02*
X-36082D01*
X-34410Y-4075D01*
X-29675D01*
X-38730Y-10950D02*
X-37750Y-11930D01*
X-34055D01*
X-28450Y-8950D02*
X-22400D01*
X-34055Y-11930D02*
X-31786Y-9662D01*
X-29162D01*
X-28450Y-8950D01*
D80*
X-63575Y-83594D02*
Y-73339D01*
Y-83600D02*
Y-83594D01*
X-22658Y-41792D02*
X-22316Y-42134D01*
X-22664Y-41792D02*
X-22658D01*
X-22968Y-41489D02*
X-22664Y-41792D01*
X-22968Y-41489D02*
Y-41061D01*
X-22968Y-41061D01*
Y-40450D01*
X-22316Y-43619D02*
Y-42134D01*
Y-43619D02*
X-21880Y-44056D01*
X-78334Y-40669D02*
X-77731Y-40066D01*
Y-28981D01*
X-78334Y-43437D02*
Y-40669D01*
Y-43437D02*
X-75569Y-46202D01*
Y-46753D02*
Y-46202D01*
X-34510Y-50090D02*
Y-35593D01*
X-34552Y-35552D02*
X-34510Y-35593D01*
Y-50090D02*
X-34075Y-50525D01*
X-33850Y-37775D02*
X-33375Y-37300D01*
X-33850Y-49817D02*
Y-37775D01*
Y-49817D02*
X-33415Y-50252D01*
X-26866Y-84173D02*
X-26819D01*
X-30145Y-80894D02*
Y-71872D01*
X-31542Y-70474D02*
X-30145Y-71872D01*
Y-80894D02*
X-26866Y-84173D01*
X-31542Y-70474D02*
Y-52016D01*
X-34075Y-71200D02*
X-32125Y-73150D01*
X-34075Y-71200D02*
Y-50525D01*
X-32283Y-70674D02*
X-30810Y-72147D01*
X-32283Y-70674D02*
Y-52292D01*
X-30810Y-82488D02*
Y-72147D01*
Y-82488D02*
X-26825Y-86473D01*
X-21880Y-78470D02*
Y-44056D01*
X-22968Y-40450D02*
X-22725Y-40208D01*
X-31100Y-51573D02*
Y-50375D01*
X-32050Y-49425D02*
X-31100Y-50375D01*
X-32050Y-49425D02*
Y-36125D01*
X-33415Y-51160D02*
X-32283Y-52292D01*
X-33415Y-51160D02*
Y-50252D01*
X-9068Y-89950D02*
X-7407Y-91611D01*
X-17574Y-87226D02*
X-17549Y-87251D01*
X-17545D01*
X-14846Y-89950D01*
X-9068D01*
X-8427Y-89575D02*
X-6500Y-91503D01*
X-13900Y-89575D02*
X-8427D01*
X-31542Y-52016D02*
X-31100Y-51573D01*
X-22584Y-85016D02*
X-18458D01*
X-13900Y-89575D01*
X-24577Y-83023D02*
X-22584Y-85016D01*
X-26825Y-83023D02*
X-24577D01*
X-7425Y-92525D02*
X-7407Y-92507D01*
Y-91611D01*
X-6500Y-92200D02*
Y-91503D01*
X-19217Y-87226D02*
X-17574D01*
X-26819Y-84173D02*
X-23765Y-87226D01*
X-19217D02*
X-19217Y-87226D01*
X-23765Y-87226D02*
X-19217D01*
X-22884Y-89766D02*
X-19217D01*
X-26174Y-86476D02*
X-22884Y-89766D01*
X-26823Y-86476D02*
X-26174D01*
X-4475Y-96007D02*
Y-95675D01*
X-5111Y-96643D02*
X-4475Y-96007D01*
X-5114Y-96643D02*
X-5111D01*
X-6309Y-97838D02*
X-5114Y-96643D01*
X-10491Y-97838D02*
X-6309D01*
X-11501Y-98848D02*
X-10491Y-97838D01*
X-26825Y-88773D02*
X-22473Y-93125D01*
X-26825Y-86473D02*
X-26823Y-86476D01*
X-19217Y-89766D02*
X-19215Y-89764D01*
X-17411D01*
X-14075Y-93100D01*
X-8350D01*
X-5325Y-96125D01*
X-2025Y-95300D02*
Y-94525D01*
X-7819Y-88731D02*
X-2025Y-94525D01*
X-9494Y-88731D02*
X-7819D01*
X-18619Y-79606D02*
X-9494Y-88731D01*
X-20744Y-79606D02*
X-18619D01*
X-21880Y-78470D02*
X-20744Y-79606D01*
X-28275Y-81573D02*
X-26825Y-83023D01*
X-28275Y-81573D02*
Y-72425D01*
X-30618Y-70082D02*
X-28275Y-72425D01*
X-30618Y-70082D02*
Y-61732D01*
X-31250Y-37375D02*
X-30507Y-38118D01*
X-30618Y-61732D02*
X-30507Y-61622D01*
Y-38118D01*
X-42250Y-38075D02*
Y-35659D01*
X-38250Y-38075D02*
Y-33968D01*
X-40224Y-31994D02*
X-38250Y-33968D01*
X-41827Y-37498D02*
X-41250Y-38075D01*
X-41827Y-37498D02*
Y-36203D01*
X-41281Y-35657D01*
X-42250Y-35659D02*
X-41750Y-35159D01*
Y-24639D01*
X-44625Y-37975D02*
Y-36624D01*
X-45461Y-35788D02*
X-44625Y-36624D01*
X-44750Y-26489D02*
X-42230Y-23969D01*
X-44750Y-35550D02*
Y-26489D01*
X-45461Y-25930D02*
X-43500Y-23969D01*
X-41750Y-24639D02*
X-41527Y-24417D01*
X-41281Y-35657D02*
Y-24997D01*
X-40976Y-24692D01*
X-44770Y-23969D02*
X-43925Y-23123D01*
X-42054D01*
X-41527Y-23650D01*
Y-24417D02*
Y-23650D01*
X-46040Y-23969D02*
X-44781Y-22710D01*
X-41802D01*
X-40976Y-23536D01*
Y-24692D02*
Y-23536D01*
X-40960Y-19893D02*
X-40224Y-20630D01*
Y-31994D02*
Y-20630D01*
X-37150Y-27835D02*
Y-19893D01*
X-38368Y-29053D02*
X-37150Y-27835D01*
X-34610Y-19893D02*
X-31064Y-23440D01*
X-29427Y-27823D02*
X-27625Y-29625D01*
X-31064Y-26614D02*
Y-23440D01*
Y-26614D02*
X-29854Y-27823D01*
X-29427D01*
X-33492Y-27438D02*
X-31137D01*
X-28950Y-29625D01*
X-14377Y-98848D02*
X-11501D01*
X-22473Y-93125D02*
X-20100D01*
X-14377Y-98848D01*
X-27498Y-88773D02*
X-26825D01*
X-32125Y-84146D02*
Y-73150D01*
Y-84146D02*
X-27498Y-88773D01*
X-34328Y-26602D02*
X-33492Y-27438D01*
X-34328Y-26602D02*
Y-21446D01*
X-35880Y-19893D02*
X-34328Y-21446D01*
X-85725Y-84606D02*
Y-41700D01*
Y-84606D02*
X-83306Y-87025D01*
X-82875D01*
X-45461Y-35788D02*
Y-25930D01*
X-22725Y-40208D02*
Y-34461D01*
D81*
X-65973Y-81246D02*
Y-70560D01*
X-66709Y-81982D02*
X-65973Y-81246D01*
X-66709Y-84913D02*
Y-81982D01*
X-67930Y-86134D02*
X-66709Y-84913D01*
D83*
X-73146Y-3671D02*
X-60504D01*
X-74675Y-5200D02*
X-73146Y-3671D01*
X-63112Y-5525D02*
X-59207Y-9430D01*
X-38730Y-10950D02*
Y-9420D01*
X-31600Y-5075D02*
X-29875D01*
X-36600Y-10075D02*
X-31600Y-5075D01*
X-70850Y-5525D02*
X-63112D01*
X-60504Y-3671D02*
X-57811Y-6364D01*
X-41786D01*
X-38730Y-9420D01*
D89*
X-27442Y-51755D02*
D03*
X-6970Y-71910D02*
D03*
Y-74450D02*
D03*
Y-84610D02*
D03*
Y-82070D02*
D03*
X-4430D02*
D03*
X-6970Y-79530D02*
D03*
X-19670Y-58194D02*
D03*
Y-50574D02*
D03*
Y-53114D02*
D03*
Y-63274D02*
D03*
Y-60734D02*
D03*
Y-81054D02*
D03*
Y-86134D02*
D03*
Y-83594D02*
D03*
Y-91214D02*
D03*
X-67930Y-65814D02*
D03*
Y-63274D02*
D03*
X-42530Y-71021D02*
D03*
X-50150Y-98834D02*
D03*
Y-101374D02*
D03*
X-52690Y-98834D02*
D03*
X-60310Y-101374D02*
D03*
Y-98834D02*
D03*
X-38730Y-10950D02*
D03*
X-6970Y-38890D02*
D03*
Y-49050D02*
D03*
Y-46510D02*
D03*
X-4430D02*
D03*
X-27442Y-38890D02*
D03*
X-19670Y-23650D02*
D03*
Y-26190D02*
D03*
Y-38890D02*
D03*
Y-41430D02*
D03*
X-67930Y-93754D02*
D03*
Y-86134D02*
D03*
D98*
X-56005Y-82777D02*
D03*
X-53489Y-83560D02*
D03*
X-48075Y-79106D02*
D03*
X-48075Y-78301D02*
D03*
Y-77495D02*
D03*
Y-76690D02*
D03*
Y-75885D02*
D03*
X-44750Y-53525D02*
D03*
X-49950Y-43600D02*
D03*
X-50050Y-45700D02*
D03*
X-65973Y-70560D02*
D03*
X-67175Y-54125D02*
D03*
X-74775Y-69619D02*
D03*
X-65025Y-107450D02*
D03*
X-63750Y-61200D02*
D03*
X-73625Y-60125D02*
D03*
X-77680Y-41670D02*
D03*
X-65025Y-105150D02*
D03*
X-13775Y-60700D02*
D03*
X-13425Y-73175D02*
D03*
X-64420Y-54625D02*
D03*
Y-60425D02*
D03*
X-65725Y-84489D02*
D03*
X-63575Y-83594D02*
D03*
Y-73339D02*
D03*
X-60806Y-53943D02*
D03*
X-60200Y-52750D02*
D03*
X-50855Y-44522D02*
D03*
X-52827Y-68008D02*
D03*
X-45025Y-46702D02*
D03*
X-44202Y-54234D02*
D03*
X-48263Y-57644D02*
D03*
X-46311Y-56250D02*
D03*
X-45275Y-57275D02*
D03*
X-46180Y-63850D02*
D03*
X-56950Y-69422D02*
D03*
X-56368Y-68697D02*
D03*
X-53925Y-70102D02*
D03*
X-53169D02*
D03*
X-60125Y-42775D02*
D03*
X-50855Y-46702D02*
D03*
X-61975Y-53175D02*
D03*
X-61950Y-57550D02*
D03*
X-23280Y-42875D02*
D03*
X-32975Y-42500D02*
D03*
X-77731Y-28981D02*
D03*
X-75569Y-46753D02*
D03*
X-69303Y-56603D02*
D03*
X-42900Y-62025D02*
D03*
X-41127Y-63128D02*
D03*
X-17307Y-54362D02*
D03*
X-26009Y-55957D02*
D03*
X-25800Y-66200D02*
D03*
X-28015Y-69663D02*
D03*
X-35350Y-69775D02*
D03*
X-37450Y-69650D02*
D03*
X-58700Y-47950D02*
D03*
X-58771Y-47200D02*
D03*
X-43765Y-33165D02*
D03*
X-38748Y-102900D02*
D03*
X-14925Y-80800D02*
D03*
X-26825Y-87623D02*
D03*
X-2025Y-95300D02*
D03*
X-4475Y-95675D02*
D03*
X-5325Y-93700D02*
D03*
X-3425Y-95625D02*
D03*
X-70653Y-51753D02*
D03*
Y-59628D02*
D03*
X-41248Y-102900D02*
D03*
X-53678D02*
D03*
X-55377D02*
D03*
X-44400Y-92700D02*
D03*
X-12075Y-87200D02*
D03*
X-26825Y-91048D02*
D03*
X-13425Y-87925D02*
D03*
X-13800Y-86575D02*
D03*
X-29300Y-57225D02*
D03*
X-2000Y-96250D02*
D03*
X-37227Y-45227D02*
D03*
X-39702Y-27576D02*
D03*
X-63028Y-50727D02*
D03*
X-37750Y-41500D02*
D03*
X-32875Y-69775D02*
D03*
X-33375Y-37300D02*
D03*
X-26825Y-86473D02*
D03*
Y-83023D02*
D03*
Y-88773D02*
D03*
X-42250Y-38075D02*
D03*
X-36752Y-62403D02*
D03*
X-24325Y-47475D02*
D03*
X-41250Y-38075D02*
D03*
X-39750Y-37075D02*
D03*
X-38550Y-81700D02*
D03*
X-38250Y-38075D02*
D03*
X-11900Y-96100D02*
D03*
X-6500Y-92200D02*
D03*
X-7925Y-91825D02*
D03*
X-72950Y-58425D02*
D03*
X-37477Y-51753D02*
D03*
X-51182Y-12105D02*
D03*
X-26009Y-30166D02*
D03*
X-24734Y-30725D02*
D03*
X-22400Y-8950D02*
D03*
X-60175Y-24550D02*
D03*
X-57025Y-41750D02*
D03*
X-30100Y-69525D02*
D03*
X-31025Y-61300D02*
D03*
X-29300Y-61875D02*
D03*
X-22450Y-41275D02*
D03*
X-76250Y-23825D02*
D03*
X-32050Y-36125D02*
D03*
X-34552Y-35552D02*
D03*
X-79475Y-41525D02*
D03*
X-23800Y-46875D02*
D03*
X-33425Y-96925D02*
D03*
X-71275Y-104680D02*
D03*
X-21725Y-40550D02*
D03*
X-37625Y-63100D02*
D03*
X-66425Y-53950D02*
D03*
X-40750Y-37050D02*
D03*
X-21750Y-43100D02*
D03*
X-31875Y-29950D02*
D03*
X-41725Y-66800D02*
D03*
X-42875Y-66800D02*
D03*
X-36600Y-10075D02*
D03*
X-74675Y-5200D02*
D03*
X-32050Y-13000D02*
D03*
X-37325Y-90250D02*
D03*
X-29650Y-22675D02*
D03*
X-7425Y-92525D02*
D03*
X-70100Y-104175D02*
D03*
X-29875Y-5075D02*
D03*
X-26825Y-89923D02*
D03*
X-26819Y-84173D02*
D03*
Y-85323D02*
D03*
X-26825Y-81873D02*
D03*
X-85175Y-87600D02*
D03*
X-59207Y-9430D02*
D03*
X-30150Y-10525D02*
D03*
X-5325Y-96125D02*
D03*
X-85175Y-89600D02*
D03*
X-84625Y-88100D02*
D03*
X-37325Y-85625D02*
D03*
Y-81175D02*
D03*
X-78659Y-26430D02*
D03*
X-73705Y-28970D02*
D03*
X-78659Y-39130D02*
D03*
Y-44210D02*
D03*
Y-51830D02*
D03*
X-83775Y-28350D02*
D03*
X-82875Y-87025D02*
D03*
X-84433Y-83600D02*
D03*
X-85100Y-84100D02*
D03*
Y-83100D02*
D03*
X-84433Y-84600D02*
D03*
X-70800Y-46925D02*
D03*
X-83200Y-90150D02*
D03*
X-86775Y-59075D02*
D03*
X-77675Y-65625D02*
D03*
X-77176Y-62199D02*
D03*
X-55850Y-115600D02*
D03*
X-52250Y-115275D02*
D03*
X-65025Y-106300D02*
D03*
Y-104000D02*
D03*
X-35125Y-29750D02*
D03*
X-24575Y-75975D02*
D03*
Y-73425D02*
D03*
X-79350Y-79200D02*
D03*
X-72125Y-54325D02*
D03*
X-76600Y-64425D02*
D03*
X-27625Y-29625D02*
D03*
X-28950D02*
D03*
X-29150Y-53150D02*
D03*
X-31250Y-37375D02*
D03*
X-17700Y-69650D02*
D03*
X-65875Y-39050D02*
D03*
Y-54475D02*
D03*
X-27276Y-71150D02*
D03*
X-32900Y-88025D02*
D03*
X-62535Y-49575D02*
D03*
X-29575Y-34400D02*
D03*
X-38200Y-47575D02*
D03*
X-44750Y-35550D02*
D03*
X-25300Y-60184D02*
D03*
X-22725Y-34461D02*
D03*
X-44625Y-37975D02*
D03*
X-44775Y-82150D02*
D03*
X-39100Y-30250D02*
D03*
X-81550Y-44100D02*
D03*
X-78661Y-36587D02*
D03*
X-65050Y-48475D02*
D03*
X-19501Y-11951D02*
D03*
X-42530Y-25675D02*
D03*
X-33525Y-34950D02*
D03*
X-13425Y-98075D02*
D03*
X-70525Y-108650D02*
D03*
X-52757Y-17205D02*
D03*
X-81250Y-21975D02*
D03*
X-73467Y-23887D02*
D03*
X-76150Y-10169D02*
D03*
X-70850Y-5525D02*
D03*
X-85725Y-41700D02*
D03*
X-40750Y-26450D02*
D03*
X-42230Y-23969D02*
D03*
X-43500D02*
D03*
X-46040D02*
D03*
X-44770D02*
D03*
X-40960Y-19893D02*
D03*
X-38368Y-29053D02*
D03*
X-37150Y-19893D02*
D03*
X-35880D02*
D03*
X-34610D02*
D03*
X-36477Y-23929D02*
D03*
X-23459Y-30014D02*
D03*
X-26975Y-50100D02*
D03*
X-49084Y-5747D02*
D03*
X-29675Y-4075D02*
D03*
X-45703Y-6978D02*
D03*
X-33419Y-32600D02*
D03*
X-26200Y-42875D02*
D03*
X-44450Y-62150D02*
D03*
X-35675Y-37125D02*
D03*
X-24450Y-35023D02*
D03*
X-23825Y-37462D02*
D03*
X-23300Y-38356D02*
D03*
X-35825Y-42800D02*
D03*
X-45250Y-43302D02*
D03*
X-35950Y-44750D02*
D03*
X-41750Y-43302D02*
D03*
X-41725Y-45125D02*
D03*
X-42725Y-45750D02*
D03*
X-43776Y-45173D02*
D03*
X-50794Y-52000D02*
D03*
Y-50513D02*
D03*
Y-49550D02*
D03*
X-50081Y-49050D02*
D03*
X-49587Y-46934D02*
D03*
X-42750Y-44125D02*
D03*
X-44075Y-43450D02*
D03*
X-46750Y-43700D02*
D03*
X-48250Y-43450D02*
D03*
D99*
X-54025Y-72050D02*
D03*
X-57050Y-74500D02*
D03*
X-54050Y-75025D02*
D03*
X-54647Y-74225D02*
D03*
X-57050Y-71625D02*
D03*
X-50139Y-71990D02*
D03*
X-50794Y-73575D02*
D03*
X-53197Y-74875D02*
D03*
X-54575Y-72925D02*
D03*
X-56450Y-75150D02*
D03*
X-51397Y-71625D02*
D03*
Y-72925D02*
D03*
X-56447Y-72275D02*
D03*
Y-73575D02*
D03*
X-29225Y-18775D02*
D03*
X-25550Y-16825D02*
D03*
X-26200D02*
D03*
D123*
X-49579Y-50785D02*
Y-48756D01*
X-50794Y-52000D02*
X-49579Y-50785D01*
X-50835Y-79450D02*
X-48075Y-76690D01*
X-50835Y-82934D02*
Y-79450D01*
X-50530Y-79950D02*
X-48075Y-77495D01*
X-50530Y-83060D02*
Y-79950D01*
X-61903Y-83377D02*
X-59373Y-85907D01*
X-52083D01*
X-47546Y-81370D01*
Y-76414D01*
X-48075Y-75885D02*
X-47546Y-76414D01*
X-61300Y-83548D02*
X-59247Y-85602D01*
X-52209D01*
X-49920Y-83313D01*
Y-80951D01*
X-48075Y-79106D01*
X-50225Y-80451D02*
X-48075Y-78301D01*
X-50225Y-83186D02*
Y-80451D01*
X-52335Y-85297D02*
X-50225Y-83186D01*
X-59120Y-85297D02*
X-52335D01*
X-60995Y-83422D02*
X-59120Y-85297D01*
X-52448Y-84978D02*
X-50530Y-83060D01*
X-59008Y-84978D02*
X-52448D01*
X-60690Y-83295D02*
X-59008Y-84978D01*
X-61903Y-83377D02*
Y-60965D01*
X-60690Y-83295D02*
Y-66014D01*
X-60995Y-83422D02*
Y-65888D01*
X-61300Y-83548D02*
Y-65761D01*
X-52074Y-84173D02*
X-50835Y-82934D01*
X-54720Y-84173D02*
X-52074D01*
X-55016Y-83877D02*
X-54720Y-84173D01*
X-57724Y-83877D02*
X-55016D01*
X-60385Y-81216D02*
X-57724Y-83877D01*
X-60385Y-81216D02*
Y-66140D01*
X-56160Y-83461D02*
X-55363D01*
X-54865Y-82964D01*
X-54085D01*
X-53489Y-83560D01*
X-60385Y-66140D02*
X-59982Y-65738D01*
Y-61807D01*
X-60690Y-66014D02*
X-60287Y-65611D01*
Y-61680D01*
X-60995Y-65888D02*
X-60592Y-65485D01*
Y-61554D01*
X-61300Y-65761D02*
X-60897Y-65359D01*
Y-61428D01*
X-56886Y-82735D02*
X-56160Y-83461D01*
X-56886Y-82735D02*
Y-77458D01*
X-59678Y-74667D02*
X-56886Y-77458D01*
X-59678Y-74667D02*
Y-61933D01*
X-56005Y-82777D02*
X-55994Y-82766D01*
Y-77918D01*
X-59372Y-74540D02*
X-55994Y-77918D01*
X-59372Y-74540D02*
Y-62113D01*
X-59367Y-62108D01*
X-51327Y-68383D02*
X-50139Y-69571D01*
Y-71990D02*
Y-69571D01*
X-56447Y-72275D02*
X-55794Y-71622D01*
X-56158Y-72800D02*
X-55408Y-72050D01*
X-55794Y-71622D02*
X-53848D01*
X-53838Y-71633D02*
X-53242D01*
X-53848Y-71622D02*
X-53838Y-71633D01*
X-55408Y-72050D02*
X-54025D01*
X-53242Y-71633D02*
X-52282Y-70673D01*
X-45482Y-53525D02*
X-44750D01*
X-59835Y-60365D02*
Y-54295D01*
X-60187Y-53943D02*
X-59835Y-54295D01*
X-60806Y-53943D02*
X-60187D01*
X-50003Y-43600D02*
X-49950D01*
X-55334Y-74307D02*
X-54824Y-73797D01*
X-56857Y-74307D02*
X-55334D01*
X-57050Y-74500D02*
X-56857Y-74307D01*
X-53093Y-67743D02*
Y-60705D01*
X-45649Y-53261D01*
X-53398Y-68972D02*
Y-60570D01*
X-46128Y-53300D01*
X-53398Y-68972D02*
X-52597Y-69772D01*
Y-70371D02*
Y-69772D01*
X-53333Y-71107D02*
X-52597Y-70371D01*
X-55877Y-71107D02*
X-53333D01*
X-56395Y-71625D02*
X-55877Y-71107D01*
X-57050Y-71625D02*
X-56395D01*
X-53747Y-69524D02*
Y-60399D01*
Y-69524D02*
X-53169Y-70102D01*
X-54110Y-62086D02*
Y-60332D01*
X-55824Y-63800D02*
X-54110Y-62086D01*
X-54415Y-60205D02*
X-49645Y-55435D01*
X-54415Y-61960D02*
Y-60205D01*
X-56195Y-63740D02*
X-54415Y-61960D01*
X-54720Y-61833D02*
Y-60079D01*
X-56500Y-63613D02*
X-54720Y-61833D01*
X-56886Y-66297D02*
Y-61814D01*
X-58124Y-62590D02*
X-52572Y-57039D01*
X-58429Y-62464D02*
X-53075Y-57110D01*
X-58762Y-62366D02*
X-54837Y-58441D01*
X-59067Y-62240D02*
X-55230Y-58402D01*
X-59367Y-62054D02*
X-55633Y-58320D01*
X-55975Y-58230D02*
Y-46656D01*
X-59678Y-61933D02*
X-55975Y-58230D01*
X-59982Y-61807D02*
X-56280Y-58104D01*
X-58476Y-59869D02*
Y-48985D01*
X-60287Y-61680D02*
X-58476Y-59869D01*
X-59530Y-60491D02*
Y-53445D01*
X-60592Y-61554D02*
X-59530Y-60491D01*
X-60897Y-61428D02*
X-59835Y-60365D01*
X-59367Y-62108D02*
Y-62054D01*
X-58124Y-72404D02*
Y-62590D01*
Y-72404D02*
X-57381Y-73147D01*
X-57385Y-73575D02*
X-56447D01*
X-58429Y-72531D02*
Y-62464D01*
Y-72531D02*
X-57385Y-73575D01*
X-58762Y-72739D02*
Y-62366D01*
Y-72739D02*
X-57499Y-74002D01*
X-53093Y-67743D02*
X-52827Y-68008D01*
X-52674Y-60717D02*
X-45482Y-53525D01*
X-51632Y-61663D02*
X-48263Y-58293D01*
X-51632Y-66921D02*
Y-61663D01*
X-47101Y-57041D02*
X-46311Y-56250D01*
X-47101Y-57666D02*
Y-57041D01*
X-51252Y-61817D02*
X-47101Y-57666D01*
X-51252Y-61829D02*
Y-61817D01*
X-51300Y-61877D02*
X-51252Y-61829D01*
X-51300Y-67228D02*
Y-61877D01*
X-52674Y-66031D02*
Y-60717D01*
X-59067Y-73312D02*
Y-62240D01*
X-52674Y-66031D02*
X-52282Y-66423D01*
X-51938Y-67226D02*
X-51632Y-66921D01*
Y-67560D02*
X-51300Y-67228D01*
X-52282Y-70673D02*
Y-66423D01*
X-56933Y-72800D02*
X-56158D01*
X-57381Y-73147D02*
X-56075D01*
X-55852Y-72925D01*
X-54575D01*
X-59067Y-73312D02*
X-57300Y-75080D01*
X-57005D01*
X-57499Y-74002D02*
X-55460D01*
X-57005Y-75080D02*
X-56647Y-74723D01*
X-55460Y-74002D02*
X-54950Y-73492D01*
X-54417D01*
X-52550Y-71625D01*
X-51397D01*
X-51938Y-68636D02*
Y-67226D01*
Y-68636D02*
X-50936Y-69638D01*
Y-72004D02*
Y-69638D01*
X-51125Y-72192D02*
X-50936Y-72004D01*
X-52686Y-72192D02*
X-51125D01*
X-54291Y-73797D02*
X-52686Y-72192D01*
X-54824Y-73797D02*
X-54291D01*
X-53242Y-73180D02*
X-52256D01*
X-54287Y-74225D02*
X-53242Y-73180D01*
X-54647Y-74225D02*
X-54287D01*
X-53386Y-73756D02*
X-52228D01*
X-54352Y-74723D02*
X-53386Y-73756D01*
X-56647Y-74723D02*
X-54352D01*
X-53638Y-75437D02*
X-50915D01*
X-54050Y-75025D02*
X-53638Y-75437D01*
X-52228Y-73756D02*
X-51397Y-72925D01*
X-51327Y-67696D02*
X-50010Y-66379D01*
X-51327Y-68383D02*
Y-67696D01*
X-51632Y-68509D02*
Y-67560D01*
Y-68509D02*
X-50595Y-69547D01*
Y-72094D02*
Y-69547D01*
X-50998Y-72497D02*
X-50595Y-72094D01*
X-51574Y-72497D02*
X-50998D01*
X-52256Y-73180D02*
X-51574Y-72497D01*
X-50010Y-61610D02*
X-46201Y-57800D01*
X-50010Y-66379D02*
Y-61610D01*
X-45800Y-57800D02*
X-45275Y-57275D01*
X-46201Y-57800D02*
X-45800D01*
X-49916Y-73575D02*
X-47518Y-71177D01*
X-50794Y-73575D02*
X-49916D01*
X-50784Y-74875D02*
X-47213Y-71303D01*
X-53197Y-74875D02*
X-50784D01*
X-46908Y-71429D02*
Y-67509D01*
X-50915Y-75437D02*
X-46908Y-71429D01*
X-50794Y-75747D02*
X-46603Y-71556D01*
X-51574Y-75747D02*
X-50794D01*
X-51927Y-76100D02*
X-51574Y-75747D01*
X-55500Y-76100D02*
X-51927D01*
X-56450Y-75150D02*
X-55500Y-76100D01*
X-47518Y-71177D02*
Y-67796D01*
X-48268Y-67046D02*
X-47518Y-67796D01*
X-43980Y-59158D02*
Y-54889D01*
X-44202Y-54667D02*
X-43980Y-54889D01*
X-44202Y-54667D02*
Y-54234D01*
X-47213Y-71303D02*
Y-67636D01*
X-47963Y-66886D02*
X-47213Y-67636D01*
X-47658Y-66759D02*
X-46908Y-67509D01*
X-46603Y-71556D02*
Y-67383D01*
X-47353Y-66633D02*
X-46603Y-67383D01*
X-43675Y-59284D02*
Y-48660D01*
X-44506Y-47830D02*
X-43675Y-48660D01*
X-44506Y-47830D02*
Y-47221D01*
X-45025Y-46702D02*
X-44506Y-47221D01*
X-61395Y-51473D02*
X-57715Y-47793D01*
X-61395Y-60457D02*
Y-51473D01*
X-61903Y-60965D02*
X-61395Y-60457D01*
X-57715Y-47793D02*
Y-43767D01*
X-60200Y-52775D02*
X-59530Y-53445D01*
X-60200Y-52775D02*
Y-52750D01*
X-58707Y-42775D02*
X-57715Y-43767D01*
X-60125Y-42775D02*
X-58707D01*
X-48268Y-67046D02*
Y-63446D01*
X-47963Y-66886D02*
Y-63572D01*
X-47658Y-66759D02*
Y-63698D01*
X-47353Y-66633D02*
Y-63825D01*
X-48268Y-63446D02*
X-43980Y-59158D01*
X-47963Y-63572D02*
X-43675Y-59284D01*
X-47658Y-63698D02*
X-43370Y-59411D01*
X-47353Y-63825D02*
X-43065Y-59537D01*
X-48263Y-58293D02*
Y-57644D01*
X-43065Y-59537D02*
Y-57937D01*
X-42734Y-57606D01*
X-46128Y-53300D02*
Y-45187D01*
X-49645Y-55435D02*
Y-55435D01*
X-57767Y-71967D02*
Y-67177D01*
X-56886Y-66297D01*
X-57767Y-71967D02*
X-56933Y-72800D01*
X-45930Y-42622D02*
X-45250Y-43302D01*
X-48785Y-43063D02*
X-48344Y-42622D01*
X-45930D01*
X-55824Y-66459D02*
X-55070Y-67212D01*
Y-68956D02*
Y-67212D01*
Y-68956D02*
X-53925Y-70102D01*
X-56195Y-67736D02*
X-55850Y-68081D01*
X-56950Y-69422D02*
X-56225D01*
X-55850Y-69047D01*
Y-68081D01*
X-56690Y-68375D02*
X-56368Y-68697D01*
X-56690Y-68375D02*
Y-67573D01*
X-56500Y-67383D01*
X-49645Y-55435D02*
X-47626Y-53416D01*
Y-45509D01*
X-48785Y-44350D02*
X-47626Y-45509D01*
X-48785Y-44350D02*
Y-43063D01*
X-54720Y-60079D02*
X-47931Y-53289D01*
Y-45635D01*
X-49090Y-44476D02*
X-47931Y-45635D01*
X-49090Y-44476D02*
Y-42937D01*
X-48470Y-42317D01*
X-45649Y-53261D02*
Y-46348D01*
X-43776Y-45173D02*
Y-45153D01*
Y-45173D02*
X-43370Y-45579D01*
Y-59411D02*
Y-45579D01*
X-44567Y-45266D02*
Y-44906D01*
X-45649Y-46348D02*
X-44567Y-45266D01*
X-55633Y-58320D02*
Y-46746D01*
X-54089Y-45202D01*
X-52355D02*
X-50855Y-46702D01*
X-54089Y-45202D02*
X-52355D01*
X-54216Y-44897D02*
X-51770D01*
X-50967Y-45700D01*
X-50050D01*
X-55975Y-46656D02*
X-54216Y-44897D01*
X-56280Y-58104D02*
Y-46396D01*
X-54962Y-45078D01*
Y-42078D01*
X-54496Y-41611D01*
X-51939D01*
X-49950Y-43600D01*
X-58476Y-48985D02*
X-57410Y-47919D01*
Y-46737D01*
X-55400Y-44727D01*
Y-41898D01*
X-54618Y-41116D01*
X-50855Y-44522D02*
X-49868D01*
X-49420Y-44073D01*
Y-43198D01*
X-51502Y-41116D02*
X-49420Y-43198D01*
X-54618Y-41116D02*
X-51502D01*
X-54110Y-60332D02*
X-47313Y-53534D01*
Y-44387D01*
X-56886Y-61814D02*
X-48504Y-53432D01*
Y-48017D01*
X-49587Y-46934D02*
X-48504Y-48017D01*
X-50084Y-49048D02*
X-50081Y-49050D01*
X-52368Y-49048D02*
X-50084D01*
X-54837Y-51517D02*
X-52368Y-49048D01*
X-54837Y-58441D02*
Y-51517D01*
X-55230Y-58402D02*
Y-51478D01*
X-52572Y-57039D02*
Y-52534D01*
X-51147Y-51108D01*
X-50794Y-49550D02*
X-50116Y-50228D01*
Y-50809D02*
Y-50228D01*
X-50415Y-51108D02*
X-50116Y-50809D01*
X-51147Y-51108D02*
X-50415D01*
X-53075Y-57110D02*
Y-52147D01*
X-51441Y-50513D01*
X-50794D01*
X-55230Y-51478D02*
X-52212Y-48461D01*
X-49873D01*
X-49579Y-48756D01*
X-44567Y-44906D02*
X-44316Y-44655D01*
X-42197D01*
X-41750Y-44208D01*
Y-43302D01*
X-45066Y-44125D02*
X-42750D01*
X-46128Y-45187D02*
X-45066Y-44125D01*
X-45208Y-42317D02*
X-44075Y-43450D01*
X-48470Y-42317D02*
X-45208D01*
X-46750Y-53403D02*
Y-43700D01*
X-53747Y-60399D02*
X-46750Y-53403D01*
X-48250Y-43450D02*
X-47313Y-44387D01*
X-55824Y-66459D02*
Y-66437D01*
X-55952Y-66308D02*
X-55824Y-66437D01*
X-55952Y-66308D02*
Y-65892D01*
X-55824Y-65763D01*
Y-63800D01*
X-56195Y-67736D02*
Y-66497D01*
X-56257Y-66434D02*
X-56195Y-66497D01*
X-56257Y-66434D02*
Y-65766D01*
X-56195Y-65703D01*
Y-63740D01*
X-56500Y-67383D02*
Y-66623D01*
X-56562Y-66561D02*
X-56500Y-66623D01*
X-56562Y-66561D02*
Y-65639D01*
X-56500Y-65577D01*
Y-63613D01*
X-42734Y-57606D02*
Y-45750D01*
X-48250Y-43325D02*
X-48227D01*
M02*
