%FSLAX43Y43*%
%MOMM*%
G71*
G01*
G75*
G04 Layer_Color=128*
%ADD10C,0.175*%
%ADD11R,0.600X0.900*%
%ADD12R,0.800X0.650*%
%ADD13R,0.900X0.600*%
%ADD14R,0.650X0.800*%
%ADD15R,0.500X0.650*%
%ADD16R,0.600X0.550*%
%ADD17R,1.050X0.600*%
%ADD18R,0.550X0.600*%
%ADD19R,0.700X0.700*%
%ADD20R,1.000X2.250*%
%ADD21R,1.200X1.200*%
%ADD22R,1.200X1.200*%
%ADD23R,0.400X1.350*%
%ADD24R,1.100X0.600*%
%ADD25R,1.100X1.000*%
%ADD26R,0.700X0.700*%
%ADD27R,0.650X0.500*%
%ADD28R,1.500X2.400*%
%ADD29R,2.200X1.500*%
%ADD30R,1.092X1.600*%
%ADD31R,1.600X1.092*%
%ADD32R,1.350X1.500*%
%ADD33R,1.500X1.350*%
%ADD34R,0.762X0.762*%
%ADD35R,0.500X0.600*%
%ADD36R,0.762X0.762*%
%ADD37R,0.950X1.000*%
%ADD38R,2.800X1.400*%
%ADD39R,1.600X1.300*%
%ADD40R,1.300X1.600*%
%ADD41R,0.950X1.750*%
%ADD42R,2.500X4.600*%
%ADD43R,2.200X0.600*%
%ADD44R,0.300X1.700*%
%ADD45O,0.300X1.700*%
%ADD46O,1.700X0.300*%
%ADD47R,0.850X0.300*%
%ADD48R,1.300X1.400*%
%ADD49R,0.230X0.500*%
%ADD50R,0.500X0.230*%
%ADD51R,3.400X3.400*%
%ADD52C,0.320*%
%ADD53R,0.600X1.100*%
%ADD54R,4.100X3.500*%
%ADD55R,0.350X0.675*%
%ADD56R,2.500X1.700*%
%ADD57R,1.400X1.600*%
%ADD58R,0.700X0.300*%
%ADD59O,0.200X0.700*%
%ADD60O,0.700X0.200*%
%ADD61R,2.800X2.800*%
%ADD62R,1.000X1.600*%
%ADD63R,3.000X2.500*%
%ADD64R,1.200X2.000*%
%ADD65R,0.610X4.600*%
%ADD66R,2.000X4.900*%
%ADD67R,0.810X4.600*%
%ADD68R,1.100X0.300*%
%ADD69R,3.100X2.300*%
%ADD70R,2.270X0.280*%
%ADD71R,0.430X2.540*%
%ADD72R,0.430X4.700*%
%ADD73R,3.200X1.270*%
%ADD74R,3.683X1.270*%
%ADD75R,0.740X2.790*%
%ADD76C,0.180*%
%ADD77C,0.200*%
%ADD78C,0.150*%
%ADD79C,0.300*%
%ADD80C,0.165*%
%ADD81C,0.185*%
%ADD82C,0.127*%
%ADD83R,1.800X1.900*%
%ADD84R,0.300X0.900*%
%ADD85C,3.600*%
%ADD86R,1.700X1.700*%
G04:AMPARAMS|DCode=87|XSize=1.05mm|YSize=1.25mm|CornerRadius=0.525mm|HoleSize=0mm|Usage=FLASHONLY|Rotation=180.000|XOffset=0mm|YOffset=0mm|HoleType=Round|Shape=RoundedRectangle|*
%AMROUNDEDRECTD87*
21,1,1.050,0.200,0,0,180.0*
21,1,0.000,1.250,0,0,180.0*
1,1,1.050,0.000,0.100*
1,1,1.050,0.000,0.100*
1,1,1.050,0.000,-0.100*
1,1,1.050,0.000,-0.100*
%
%ADD87ROUNDEDRECTD87*%
G04:AMPARAMS|DCode=88|XSize=2.1mm|YSize=1.9mm|CornerRadius=0.494mm|HoleSize=0mm|Usage=FLASHONLY|Rotation=180.000|XOffset=0mm|YOffset=0mm|HoleType=Round|Shape=RoundedRectangle|*
%AMROUNDEDRECTD88*
21,1,2.100,0.912,0,0,180.0*
21,1,1.112,1.900,0,0,180.0*
1,1,0.988,-0.556,0.456*
1,1,0.988,0.556,0.456*
1,1,0.988,0.556,-0.456*
1,1,0.988,-0.556,-0.456*
%
%ADD88ROUNDEDRECTD88*%
%ADD89C,1.700*%
%ADD90R,1.700X1.700*%
%ADD91C,1.500*%
%ADD92R,5.000X2.400*%
%ADD93R,5.000X2.200*%
%ADD94R,2.200X4.500*%
%ADD95C,1.020*%
%ADD96C,1.000*%
%ADD97C,0.550*%
%ADD98C,0.400*%
%ADD99C,0.700*%
%ADD100C,0.660*%
%ADD101C,1.016*%
%ADD102C,0.500*%
%ADD103C,1.600*%
G04:AMPARAMS|DCode=104|XSize=2.524mm|YSize=2.524mm|CornerRadius=0mm|HoleSize=0mm|Usage=FLASHONLY|Rotation=0.000|XOffset=0mm|YOffset=0mm|HoleType=Round|Shape=Relief|Width=0.254mm|Gap=0.254mm|Entries=4|*
%AMTHD104*
7,0,0,2.524,2.016,0.254,45*
%
%ADD104THD104*%
%ADD105O,1.250X1.450*%
%ADD106O,1.425X2.100*%
%ADD107C,1.900*%
%ADD108C,2.100*%
%ADD109C,3.600*%
%AMTHOVALD110*
21,1,1.800,2.724,0,0,0.0*
1,1,2.724,-0.900,0.000*
1,1,2.724,0.900,0.000*
21,0,1.800,2.216,0,0,0.0*
1,0,2.216,-0.900,0.000*
1,0,2.216,0.900,0.000*
4,0,4,-0.810,-0.090,-1.773,-1.053,-1.953,-0.873,-0.990,0.090,-0.810,-0.090,0.0*
4,0,4,0.990,-0.090,1.953,0.873,1.773,1.053,0.810,0.090,0.990,-0.090,0.0*
4,0,4,-0.990,-0.090,-1.953,0.873,-1.773,1.053,-0.810,0.090,-0.990,-0.090,0.0*
4,0,4,0.810,-0.090,1.773,-1.053,1.953,-0.873,0.990,0.090,0.810,-0.090,0.0*
%
%ADD110THOVALD110*%

%ADD111O,4.100X1.800*%
%AMTHOVALD112*
21,1,1.700,2.824,0,0,270.0*
1,1,2.824,0.000,0.850*
1,1,2.824,0.000,-0.850*
21,0,1.700,2.316,0,0,270.0*
1,0,2.316,0.000,0.850*
1,0,2.316,0.000,-0.850*
4,0,4,-0.090,0.760,-1.088,1.759,-0.909,1.938,0.090,0.940,-0.090,0.760,0.0*
4,0,4,-0.090,-0.940,0.909,-1.938,1.088,-1.759,0.090,-0.760,-0.090,-0.940,0.0*
4,0,4,-0.090,0.940,0.909,1.938,1.088,1.759,0.090,0.760,-0.090,0.940,0.0*
4,0,4,-0.090,-0.760,-1.088,-1.759,-0.909,-1.938,0.090,-0.940,-0.090,-0.760,0.0*
%
%ADD112THOVALD112*%

%ADD113C,1.620*%
%ADD114C,1.790*%
%ADD115C,0.850*%
%ADD116C,0.800*%
%ADD117C,0.930*%
%ADD118C,3.300*%
%ADD119O,3.600X1.800*%
%ADD120O,1.900X3.600*%
%ADD121C,0.950*%
%ADD122C,0.800*%
%ADD123C,1.270*%
%ADD124R,1.300X0.600*%
%ADD125R,3.700X0.980*%
%ADD126R,0.600X1.300*%
%ADD127R,0.650X1.050*%
%ADD128R,0.980X3.700*%
%ADD129R,1.400X0.600*%
%ADD130R,0.350X0.850*%
%ADD131R,1.700X0.350*%
%ADD132C,0.280*%
%ADD133O,0.280X0.850*%
%ADD134O,0.850X0.280*%
%ADD135R,2.700X2.700*%
%ADD136R,0.700X0.230*%
%ADD137R,0.230X0.700*%
%ADD138O,1.524X0.381*%
%ADD139R,2.000X1.100*%
%ADD140R,3.000X3.000*%
%ADD141R,0.800X2.000*%
%ADD142C,0.125*%
%ADD143R,0.312X0.829*%
%ADD144R,1.490X0.201*%
%ADD145R,1.507X0.242*%
%ADD146C,0.254*%
%ADD147C,0.250*%
%ADD148C,0.600*%
%ADD149C,1.000*%
%ADD150C,0.100*%
%ADD151C,0.112*%
%ADD152R,2.100X2.100*%
%ADD153R,2.100X2.100*%
%ADD154C,0.264*%
%ADD155R,1.750X1.750*%
%ADD156R,0.870X0.870*%
%ADD157R,1.125X1.550*%
%ADD158R,1.700X1.700*%
%ADD159R,0.000X0.000*%
%ADD160R,1.350X1.550*%
%ADD161R,1.300X1.400*%
%ADD162R,0.510X0.900*%
%ADD163R,0.850X1.950*%
%ADD164R,0.700X1.000*%
%ADD165R,0.900X0.750*%
%ADD166R,1.000X0.700*%
%ADD167R,0.750X0.900*%
%ADD168R,0.600X0.750*%
%ADD169R,0.700X0.650*%
%ADD170R,1.150X0.700*%
%ADD171R,0.650X0.700*%
%ADD172R,0.800X0.800*%
%ADD173R,1.100X2.350*%
%ADD174R,1.300X1.300*%
%ADD175R,1.300X1.300*%
%ADD176R,0.500X1.450*%
%ADD177R,1.200X0.700*%
%ADD178R,1.200X1.100*%
%ADD179R,0.800X0.800*%
%ADD180R,0.750X0.600*%
%ADD181R,1.600X2.500*%
%ADD182R,2.300X1.600*%
%ADD183R,1.192X1.700*%
%ADD184R,1.700X1.192*%
%ADD185R,1.450X1.600*%
%ADD186R,1.600X1.450*%
%ADD187R,0.862X0.862*%
%ADD188R,0.600X0.700*%
%ADD189R,0.862X0.862*%
%ADD190R,1.050X1.100*%
%ADD191R,2.900X1.500*%
%ADD192R,1.700X1.400*%
%ADD193R,1.400X1.700*%
%ADD194R,1.050X1.850*%
%ADD195R,2.600X4.700*%
%ADD196R,2.300X0.700*%
%ADD197R,0.400X1.800*%
%ADD198O,0.400X1.800*%
%ADD199O,1.800X0.400*%
%ADD200R,0.950X0.400*%
%ADD201R,1.400X1.500*%
%ADD202R,0.330X0.600*%
%ADD203R,0.600X0.330*%
%ADD204R,3.500X3.500*%
%ADD205C,0.470*%
%ADD206R,0.700X1.200*%
%ADD207R,4.200X3.600*%
%ADD208R,0.450X0.775*%
%ADD209R,2.600X1.800*%
%ADD210R,1.550X1.750*%
%ADD211R,0.850X0.450*%
%ADD212O,0.300X0.800*%
%ADD213O,0.800X0.300*%
%ADD214R,2.900X2.900*%
%ADD215R,1.100X1.700*%
%ADD216R,3.100X2.600*%
%ADD217R,1.300X2.100*%
%ADD218R,0.710X4.700*%
%ADD219R,2.100X5.000*%
%ADD220R,0.910X4.700*%
%ADD221R,1.200X0.400*%
%ADD222R,3.200X2.400*%
%ADD223R,2.370X0.380*%
%ADD224R,0.530X2.640*%
%ADD225R,0.530X4.800*%
%ADD226R,3.300X1.370*%
%ADD227R,3.783X1.370*%
%ADD228R,0.840X2.890*%
%ADD229R,1.900X2.000*%
%ADD230C,3.700*%
%ADD231R,1.800X1.800*%
G04:AMPARAMS|DCode=232|XSize=1.15mm|YSize=1.35mm|CornerRadius=0.575mm|HoleSize=0mm|Usage=FLASHONLY|Rotation=180.000|XOffset=0mm|YOffset=0mm|HoleType=Round|Shape=RoundedRectangle|*
%AMROUNDEDRECTD232*
21,1,1.150,0.200,0,0,180.0*
21,1,0.000,1.350,0,0,180.0*
1,1,1.150,0.000,0.100*
1,1,1.150,0.000,0.100*
1,1,1.150,0.000,-0.100*
1,1,1.150,0.000,-0.100*
%
%ADD232ROUNDEDRECTD232*%
G04:AMPARAMS|DCode=233|XSize=2.2mm|YSize=2mm|CornerRadius=0.544mm|HoleSize=0mm|Usage=FLASHONLY|Rotation=180.000|XOffset=0mm|YOffset=0mm|HoleType=Round|Shape=RoundedRectangle|*
%AMROUNDEDRECTD233*
21,1,2.200,0.912,0,0,180.0*
21,1,1.112,2.000,0,0,180.0*
1,1,1.088,-0.556,0.456*
1,1,1.088,0.556,0.456*
1,1,1.088,0.556,-0.456*
1,1,1.088,-0.556,-0.456*
%
%ADD233ROUNDEDRECTD233*%
%ADD234C,1.800*%
%ADD235C,0.100*%
%ADD236R,1.800X1.800*%
%ADD237R,0.100X0.100*%
%ADD238R,5.100X2.500*%
%ADD239R,5.100X2.300*%
%ADD240R,2.300X4.600*%
%ADD241C,1.120*%
%ADD242C,1.100*%
%ADD243C,0.650*%
%ADD244C,0.900*%
%ADD245C,1.370*%
%ADD246R,1.400X0.700*%
%ADD247R,3.800X1.080*%
%ADD248R,0.700X1.400*%
%ADD249R,0.750X1.150*%
%ADD250R,1.080X3.800*%
%ADD251R,1.500X0.700*%
%ADD252R,0.450X0.950*%
%ADD253R,1.800X0.450*%
%ADD254C,0.380*%
%ADD255O,0.380X0.950*%
%ADD256O,0.950X0.380*%
%ADD257R,0.800X0.330*%
%ADD258R,0.330X0.800*%
%ADD259O,1.624X0.481*%
%ADD260R,2.400X1.500*%
%ADD261R,3.400X3.400*%
%ADD262R,1.200X2.400*%
%ADD263C,0.600*%
%ADD264R,0.700X0.700*%
%ADD265R,3.450X0.730*%
%ADD266R,0.730X3.450*%
D11*
X-65857Y-8459D02*
D03*
Y-7359D02*
D03*
X-72125Y-19325D02*
D03*
Y-18225D02*
D03*
X-73755Y-10219D02*
D03*
Y-11319D02*
D03*
D12*
X-1800Y-11100D02*
D03*
X-3000D02*
D03*
X-4300D02*
D03*
X-5500D02*
D03*
X-10475Y-14850D02*
D03*
X-9275D02*
D03*
X-11325Y-26500D02*
D03*
X-10125D02*
D03*
X-7000D02*
D03*
X-5800D02*
D03*
X-7000Y-25200D02*
D03*
X-5800D02*
D03*
X-13200Y-9075D02*
D03*
X-14400D02*
D03*
X-20600Y-3525D02*
D03*
X-21800D02*
D03*
X-20050Y-9500D02*
D03*
X-21250D02*
D03*
X-62600Y-10625D02*
D03*
X-63800D02*
D03*
X-64118Y-1650D02*
D03*
X-62918D02*
D03*
X-67977D02*
D03*
X-66777D02*
D03*
X-67056Y-11430D02*
D03*
X-65856D02*
D03*
X-70300Y-4675D02*
D03*
X-71500D02*
D03*
X-76850Y-48034D02*
D03*
X-78050D02*
D03*
X-76850Y-45494D02*
D03*
X-78050D02*
D03*
X-81159Y-35560D02*
D03*
X-82359D02*
D03*
X-78177Y-40421D02*
D03*
X-79377D02*
D03*
X-65856Y-10216D02*
D03*
X-67056D02*
D03*
X-31750Y-4075D02*
D03*
X-30550D02*
D03*
D13*
X-65906Y-13834D02*
D03*
X-67006D02*
D03*
X-67006Y-12637D02*
D03*
X-65906D02*
D03*
X-20100Y-10675D02*
D03*
X-21200D02*
D03*
X-20650Y-4650D02*
D03*
X-21750D02*
D03*
D14*
X-72526Y-11360D02*
D03*
Y-10160D02*
D03*
X-30281Y-27562D02*
D03*
Y-28762D02*
D03*
X-56132Y-2030D02*
D03*
Y-3230D02*
D03*
X-5700Y-8600D02*
D03*
Y-9800D02*
D03*
X-1800Y-9800D02*
D03*
Y-8600D02*
D03*
X-57507Y-3230D02*
D03*
Y-2030D02*
D03*
X-11800Y-16100D02*
D03*
Y-14900D02*
D03*
X-13675Y-7775D02*
D03*
Y-6575D02*
D03*
X-17100Y-11700D02*
D03*
Y-10500D02*
D03*
X-31881Y-27569D02*
D03*
Y-28769D02*
D03*
X-26016Y-27562D02*
D03*
Y-28762D02*
D03*
X-24741Y-27562D02*
D03*
Y-28762D02*
D03*
X-23466Y-27562D02*
D03*
Y-28762D02*
D03*
X-22191Y-27562D02*
D03*
Y-28762D02*
D03*
X-33481Y-28769D02*
D03*
Y-27569D02*
D03*
X-36600Y-10950D02*
D03*
Y-12150D02*
D03*
X-35325Y-12150D02*
D03*
Y-10950D02*
D03*
X-71300Y-23075D02*
D03*
Y-24275D02*
D03*
X-38328Y-65549D02*
D03*
Y-64349D02*
D03*
X-42878Y-65549D02*
D03*
Y-64349D02*
D03*
X-41728Y-64349D02*
D03*
Y-65549D02*
D03*
X-39478Y-65549D02*
D03*
Y-64349D02*
D03*
X-44028Y-64349D02*
D03*
Y-65549D02*
D03*
X-40600Y-65550D02*
D03*
Y-64350D02*
D03*
X-35131Y-28769D02*
D03*
Y-27569D02*
D03*
X-28956Y-28762D02*
D03*
Y-27562D02*
D03*
X-27631Y-28762D02*
D03*
Y-27562D02*
D03*
X-74983Y-10169D02*
D03*
Y-11369D02*
D03*
D15*
X-52297Y-78775D02*
D03*
Y-79725D02*
D03*
Y-76825D02*
D03*
Y-77775D02*
D03*
X-55547Y-79425D02*
D03*
Y-80375D02*
D03*
Y-75525D02*
D03*
Y-76475D02*
D03*
X-16900Y-19325D02*
D03*
Y-20275D02*
D03*
Y-22175D02*
D03*
Y-21225D02*
D03*
X-29875Y-18125D02*
D03*
Y-19075D02*
D03*
X-30750Y-18125D02*
D03*
Y-19075D02*
D03*
X-58982Y-12655D02*
D03*
Y-13605D02*
D03*
X-52007Y-22880D02*
D03*
Y-21930D02*
D03*
X-52832Y-3530D02*
D03*
Y-4480D02*
D03*
X-52832Y-5980D02*
D03*
Y-6930D02*
D03*
X-57272Y-80825D02*
D03*
Y-81775D02*
D03*
X-56422Y-80825D02*
D03*
Y-81775D02*
D03*
X-55547Y-77475D02*
D03*
Y-78425D02*
D03*
Y-70975D02*
D03*
Y-70025D02*
D03*
X-67986Y-4996D02*
D03*
Y-4046D02*
D03*
D16*
X-17975Y-15525D02*
D03*
X-16975D02*
D03*
X-85825Y-16950D02*
D03*
X-86825D02*
D03*
X-85325Y-8025D02*
D03*
X-86325D02*
D03*
X-51757Y-18080D02*
D03*
X-52757D02*
D03*
D18*
X-49107Y-14711D02*
D03*
Y-13711D02*
D03*
X-48207D02*
D03*
Y-14711D02*
D03*
X-49107Y-11693D02*
D03*
Y-12693D02*
D03*
X-48207D02*
D03*
Y-11693D02*
D03*
X-28950Y-5075D02*
D03*
Y-4075D02*
D03*
X-28950Y-7075D02*
D03*
Y-6075D02*
D03*
X-20175Y-14900D02*
D03*
Y-15900D02*
D03*
Y-13900D02*
D03*
Y-12900D02*
D03*
X-69004Y-5020D02*
D03*
Y-4020D02*
D03*
X-67050Y-4021D02*
D03*
Y-5021D02*
D03*
X-52832Y-22930D02*
D03*
Y-21930D02*
D03*
X-52832Y-20505D02*
D03*
Y-19505D02*
D03*
X-51957Y-3505D02*
D03*
Y-4505D02*
D03*
X-51957Y-6955D02*
D03*
Y-5955D02*
D03*
X-88175Y-15625D02*
D03*
Y-14625D02*
D03*
Y-13000D02*
D03*
Y-12000D02*
D03*
D24*
X-67299Y-6437D02*
D03*
Y-7387D02*
D03*
Y-8337D02*
D03*
X-69699D02*
D03*
Y-7387D02*
D03*
Y-6437D02*
D03*
D26*
X-68975Y-20125D02*
D03*
X-69875Y-19225D02*
D03*
X-32650Y-16700D02*
D03*
X-31250D02*
D03*
D27*
X-25725Y-22950D02*
D03*
X-24775D02*
D03*
X-25725Y-22200D02*
D03*
X-24775D02*
D03*
X-23750Y-12700D02*
D03*
X-22800D02*
D03*
X-23750Y-11800D02*
D03*
X-22800D02*
D03*
X-24900Y-12700D02*
D03*
X-25850D02*
D03*
X-24900Y-11800D02*
D03*
X-25850D02*
D03*
X-17950Y-16425D02*
D03*
X-17000D02*
D03*
X-31075Y-15600D02*
D03*
X-32025D02*
D03*
X-20150Y-18000D02*
D03*
X-19200D02*
D03*
X-51182Y-10405D02*
D03*
X-50232D02*
D03*
X-51182Y-11324D02*
D03*
X-50232D02*
D03*
X-51182Y-15080D02*
D03*
X-50232D02*
D03*
X-51182Y-12743D02*
D03*
X-50232D02*
D03*
X-51182Y-13661D02*
D03*
X-50232D02*
D03*
D30*
X-54575Y-8905D02*
D03*
X-56607D02*
D03*
X-54000Y-20205D02*
D03*
X-56032D02*
D03*
X-54000Y-6155D02*
D03*
X-56032D02*
D03*
X-54550Y-17405D02*
D03*
X-56582D02*
D03*
D32*
X-68425Y-16300D02*
D03*
X-66775D02*
D03*
D33*
X-65200Y-20825D02*
D03*
Y-19175D02*
D03*
D36*
X-50008Y-16205D02*
D03*
X-51405D02*
D03*
D40*
X-15400Y-22150D02*
D03*
Y-18350D02*
D03*
X-13100D02*
D03*
Y-22150D02*
D03*
D122*
X-62098Y-5881D02*
D03*
X-73625Y-19525D02*
D03*
X-60982Y-17730D02*
D03*
X-60707Y-8480D02*
D03*
X-73300Y-4675D02*
D03*
X-68411Y-14313D02*
D03*
X-61425Y-1650D02*
D03*
D124*
X-15550Y-15000D02*
D03*
X-13450Y-15950D02*
D03*
Y-14050D02*
D03*
Y-11450D02*
D03*
X-15550Y-10500D02*
D03*
Y-12400D02*
D03*
X-9350Y-12400D02*
D03*
X-11450Y-11450D02*
D03*
Y-13350D02*
D03*
X-62898Y-12981D02*
D03*
X-60798Y-12031D02*
D03*
Y-13931D02*
D03*
D126*
X-75400Y-15925D02*
D03*
X-73500D02*
D03*
X-74450Y-18025D02*
D03*
X-86775Y-9500D02*
D03*
X-84875D02*
D03*
X-85825Y-11600D02*
D03*
X-86775Y-13375D02*
D03*
X-84875D02*
D03*
X-85825Y-15475D02*
D03*
D127*
X-25772Y-4425D02*
D03*
X-27678D02*
D03*
Y-6875D02*
D03*
X-26725D02*
D03*
X-25772D02*
D03*
X-70771Y-12463D02*
D03*
X-68865D02*
D03*
X-70771Y-10013D02*
D03*
X-69818D02*
D03*
X-68865D02*
D03*
D129*
X-63623Y-4406D02*
D03*
X-65523Y-5356D02*
D03*
Y-3456D02*
D03*
X-64298Y-8218D02*
D03*
X-62398Y-9168D02*
D03*
Y-7268D02*
D03*
D130*
X-4375Y-9725D02*
D03*
X-3725D02*
D03*
X-3075D02*
D03*
Y-7875D02*
D03*
X-3725D02*
D03*
X-4375D02*
D03*
D131*
X-15625Y-6150D02*
D03*
Y-6800D02*
D03*
Y-7450D02*
D03*
Y-8100D02*
D03*
X-21325Y-6150D02*
D03*
Y-6800D02*
D03*
Y-7450D02*
D03*
Y-8100D02*
D03*
D132*
X-21975Y-20400D02*
D03*
Y-19750D02*
D03*
Y-19100D02*
D03*
Y-18450D02*
D03*
Y-17150D02*
D03*
Y-16500D02*
D03*
Y-15850D02*
D03*
Y-17800D02*
D03*
X-22625D02*
D03*
X-23275D02*
D03*
X-23925D02*
D03*
X-24575D02*
D03*
X-25225D02*
D03*
X-25875D02*
D03*
X-26525D02*
D03*
X-27175D02*
D03*
X-27825D02*
D03*
X-22625Y-20400D02*
D03*
X-23275D02*
D03*
X-23925D02*
D03*
X-24575D02*
D03*
X-25225D02*
D03*
X-25875D02*
D03*
X-26525D02*
D03*
X-27175D02*
D03*
X-27825D02*
D03*
X-22625Y-19750D02*
D03*
X-23275D02*
D03*
X-23925D02*
D03*
X-24575D02*
D03*
X-25225D02*
D03*
X-25875D02*
D03*
X-26525D02*
D03*
X-27175D02*
D03*
X-27825D02*
D03*
X-22625Y-19100D02*
D03*
X-23275D02*
D03*
X-23925D02*
D03*
X-24575D02*
D03*
X-25225D02*
D03*
X-25875D02*
D03*
X-26525D02*
D03*
X-27175D02*
D03*
X-27825D02*
D03*
X-22625Y-18450D02*
D03*
X-23275D02*
D03*
X-23925D02*
D03*
X-24575D02*
D03*
X-25225D02*
D03*
X-25875D02*
D03*
X-26525D02*
D03*
X-27175D02*
D03*
X-27825D02*
D03*
X-22625Y-17150D02*
D03*
X-23275D02*
D03*
X-23925D02*
D03*
X-24575D02*
D03*
X-25225D02*
D03*
X-25875D02*
D03*
X-26525D02*
D03*
X-27175D02*
D03*
X-27825D02*
D03*
X-22625Y-16500D02*
D03*
X-23275D02*
D03*
X-23925D02*
D03*
X-24575D02*
D03*
X-25225D02*
D03*
X-25875D02*
D03*
X-26525D02*
D03*
X-27175D02*
D03*
X-27825D02*
D03*
X-22625Y-15850D02*
D03*
X-23275D02*
D03*
X-23925D02*
D03*
X-24575D02*
D03*
X-25225D02*
D03*
X-25875D02*
D03*
X-26525D02*
D03*
X-27175D02*
D03*
X-27825D02*
D03*
X-21975Y-15200D02*
D03*
X-22625D02*
D03*
X-23275D02*
D03*
X-23925D02*
D03*
X-24575D02*
D03*
X-25225D02*
D03*
X-25875D02*
D03*
X-26525D02*
D03*
X-27175D02*
D03*
X-27825D02*
D03*
X-21975Y-14550D02*
D03*
X-22625D02*
D03*
X-23275D02*
D03*
X-23925D02*
D03*
X-24575D02*
D03*
X-25225D02*
D03*
X-25875D02*
D03*
X-26525D02*
D03*
X-27175D02*
D03*
X-27825D02*
D03*
D133*
X-68675Y-21150D02*
D03*
X-69175D02*
D03*
X-69675D02*
D03*
X-70175D02*
D03*
Y-18200D02*
D03*
X-69675D02*
D03*
X-69175D02*
D03*
X-68675D02*
D03*
D134*
X-70900Y-20425D02*
D03*
Y-19925D02*
D03*
Y-19425D02*
D03*
Y-18925D02*
D03*
X-67950D02*
D03*
Y-19425D02*
D03*
Y-19925D02*
D03*
Y-20425D02*
D03*
D136*
X-52782Y-14430D02*
D03*
Y-13930D02*
D03*
Y-13430D02*
D03*
Y-12930D02*
D03*
Y-12430D02*
D03*
Y-11930D02*
D03*
X-56682D02*
D03*
Y-12430D02*
D03*
Y-12930D02*
D03*
Y-13430D02*
D03*
Y-13930D02*
D03*
Y-14430D02*
D03*
D137*
X-53482Y-11230D02*
D03*
X-53982D02*
D03*
X-54482D02*
D03*
X-54982D02*
D03*
X-55482D02*
D03*
X-55982D02*
D03*
Y-15130D02*
D03*
X-55482D02*
D03*
X-54982D02*
D03*
X-54482D02*
D03*
X-53982D02*
D03*
X-53482D02*
D03*
D138*
X-74687Y-3375D02*
D03*
Y-2725D02*
D03*
Y-2075D02*
D03*
Y-1425D02*
D03*
X-70063Y-1425D02*
D03*
Y-2075D02*
D03*
Y-2725D02*
D03*
Y-3375D02*
D03*
D139*
X-59627Y-125700D02*
D03*
Y-115650D02*
D03*
D140*
X-60127Y-121700D02*
D03*
Y-108700D02*
D03*
X-29978D02*
D03*
Y-121700D02*
D03*
D141*
X-57377Y-104700D02*
D03*
X-36248D02*
D03*
X-55377D02*
D03*
X-53678D02*
D03*
X-51248D02*
D03*
X-48748D02*
D03*
X-46248D02*
D03*
X-43748D02*
D03*
X-41248D02*
D03*
X-38748D02*
D03*
D263*
X-54732Y-13180D02*
D03*
X-54082Y-12530D02*
D03*
Y-13830D02*
D03*
X-55382Y-12530D02*
D03*
Y-13830D02*
D03*
D264*
X-68975Y-19225D02*
D03*
X-69875Y-20125D02*
D03*
D265*
X-58857Y-19370D02*
D03*
Y-21740D02*
D03*
Y-7015D02*
D03*
Y-4645D02*
D03*
D266*
X-68685Y-24125D02*
D03*
X-66315D02*
D03*
M02*
